<?xml version="1.0" encoding="UTF-8" standalone="no"?>
<svg
   xmlns:dc="http://purl.org/dc/elements/1.1/"
   xmlns:cc="http://creativecommons.org/ns#"
   xmlns:rdf="http://www.w3.org/1999/02/22-rdf-syntax-ns#"
   xmlns:svg="http://www.w3.org/2000/svg"
   xmlns="http://www.w3.org/2000/svg"
   xmlns:sodipodi="http://sodipodi.sourceforge.net/DTD/sodipodi-0.dtd"
   xmlns:inkscape="http://www.inkscape.org/namespaces/inkscape"
   width="2269pt"
   height="504pt"
   viewBox="0 0 2269 504"
   version="1.1"
   id="svg13236"
   sodipodi:docname="nfu_title.svg"
   inkscape:version="0.92.3 (2405546, 2018-03-11)">
  <metadata
     id="metadata13242">
    <rdf:RDF>
      <cc:Work
         rdf:about="">
        <dc:format>image/svg+xml</dc:format>
        <dc:type
           rdf:resource="http://purl.org/dc/dcmitype/StillImage" />
      </cc:Work>
    </rdf:RDF>
  </metadata>
  <defs
     id="defs13240" />
  <sodipodi:namedview
     pagecolor="#ffffff"
     bordercolor="#666666"
     borderopacity="1"
     objecttolerance="10"
     gridtolerance="10"
     guidetolerance="10"
     inkscape:pageopacity="0"
     inkscape:pageshadow="2"
     inkscape:window-width="1080"
     inkscape:window-height="1857"
     id="namedview13238"
     showgrid="false"
     inkscape:zoom="0.10237311"
     inkscape:cx="1328.6691"
     inkscape:cy="-2781.3494"
     inkscape:window-x="-8"
     inkscape:window-y="-8"
     inkscape:window-maximized="1"
     inkscape:current-layer="svg13236" />
  <g
     id="#ffffffff">
    <path
       fill="#ffffff"
       opacity="1.00"
       d=" M 0.00 0.00 L 2269.00 0.00 L 2269.00 504.00 L 0.00 504.00 L 0.00 0.00 M 989.98 24.05 C 988.70 28.16 989.83 33.99 985.29 36.27 C 979.96 38.01 973.39 37.72 968.79 34.24 C 965.77 32.24 963.48 27.86 959.37 28.43 C 955.33 30.31 954.29 35.26 952.22 38.83 C 948.25 37.95 944.22 35.64 940.09 36.78 C 937.97 37.63 937.68 40.12 937.67 42.09 C 937.49 67.06 937.87 92.03 937.84 117.00 C 937.65 121.13 937.85 125.45 936.29 129.35 C 934.69 131.67 929.49 131.41 929.65 127.92 C 928.03 110.98 929.73 93.95 929.31 76.98 C 928.62 72.47 925.39 68.88 922.86 65.24 C 919.83 61.71 916.76 57.44 912.07 56.16 C 909.09 55.35 907.50 58.48 907.19 60.91 C 905.45 72.37 908.48 83.78 910.80 94.93 C 913.40 106.78 911.83 118.96 912.48 130.97 C 912.26 135.81 912.72 141.43 909.44 145.39 C 906.30 149.05 901.11 147.61 897.05 146.79 C 893.07 146.07 889.85 143.32 885.94 142.48 C 882.25 141.89 880.43 145.95 879.98 148.94 C 877.87 161.52 878.96 174.33 878.88 187.02 C 878.83 191.33 879.33 196.19 882.74 199.25 C 886.98 203.51 895.45 202.71 897.99 196.96 C 903.17 185.73 903.85 173.02 908.67 161.66 C 910.60 156.57 916.23 154.89 920.70 152.71 C 938.51 145.38 957.04 139.89 975.64 134.92 C 990.87 131.75 1006.46 130.01 1022.04 130.27 C 1025.11 130.43 1028.84 130.53 1030.94 133.15 C 1032.47 134.94 1030.44 137.10 1028.77 137.79 C 1022.90 140.59 1016.26 138.81 1010.06 139.71 C 999.11 141.19 988.45 144.26 977.90 147.43 C 964.91 151.52 951.98 155.91 939.55 161.48 C 935.40 163.42 930.78 166.19 929.66 170.97 C 928.71 176.64 934.76 180.92 939.95 180.52 C 945.71 180.14 950.03 175.84 954.47 172.64 C 964.22 164.92 976.48 159.32 989.14 160.26 C 993.85 160.75 994.61 167.56 990.92 169.95 C 983.66 174.04 975.59 176.48 968.11 180.10 C 966.72 181.86 967.07 184.53 967.47 186.62 C 969.81 188.32 974.37 185.77 975.60 189.31 C 976.50 191.11 978.46 193.69 976.42 195.41 C 973.31 197.04 969.75 197.41 966.40 198.20 C 958.44 199.49 951.02 203.20 942.88 203.51 C 935.56 204.25 928.31 202.40 921.01 202.69 C 916.51 202.90 911.01 205.81 911.19 210.95 C 911.34 221.07 923.13 229.12 932.59 225.39 C 935.66 223.67 937.74 220.54 941.07 219.16 C 951.61 214.15 963.42 212.32 975.01 211.91 C 977.18 212.14 980.88 211.90 980.88 215.02 C 981.38 222.90 979.07 230.67 977.05 238.22 C 975.72 242.07 975.03 246.96 970.91 248.88 C 962.86 252.71 953.67 252.61 944.94 252.89 C 941.99 253.12 938.88 252.30 936.07 253.51 C 942.54 261.23 951.32 266.49 959.04 272.85 C 963.24 275.73 966.63 280.33 971.94 281.19 C 977.96 281.89 983.25 278.08 987.58 274.37 C 991.36 270.82 995.65 267.39 997.53 262.38 C 1003.93 246.03 1003.86 228.16 1007.11 211.11 C 1007.37 208.16 1010.76 207.68 1013.11 207.46 C 1025.14 206.66 1037.05 209.13 1049.02 209.68 C 1052.06 209.89 1055.06 208.03 1056.21 205.20 C 1059.27 197.44 1053.83 186.94 1045.08 186.52 C 1031.26 185.48 1017.61 188.65 1003.88 189.61 C 1001.91 189.56 998.99 190.25 998.22 187.80 C 997.67 183.61 999.86 179.56 1002.62 176.55 C 1010.83 167.17 1019.45 158.05 1029.24 150.29 C 1032.76 147.20 1037.70 147.72 1042.05 147.38 C 1051.34 146.80 1060.80 146.53 1069.76 143.76 C 1073.11 142.60 1076.87 140.97 1078.39 137.50 C 1079.91 133.26 1079.33 128.12 1076.26 124.71 C 1073.11 121.16 1068.52 119.44 1064.15 117.94 C 1054.10 115.23 1043.35 116.47 1033.34 113.82 C 1032.16 109.97 1033.42 105.89 1034.43 102.14 C 1037.52 92.94 1040.77 83.77 1044.91 74.97 C 1046.34 72.15 1047.66 69.12 1050.01 66.92 C 1051.98 65.90 1054.53 65.78 1055.98 63.90 C 1058.80 60.31 1059.65 54.40 1055.99 51.05 C 1045.81 41.30 1028.71 40.18 1017.17 48.18 C 1015.64 49.32 1013.54 51.19 1014.58 53.29 C 1019.67 56.67 1026.19 57.92 1030.42 62.60 C 1032.46 64.72 1032.32 68.21 1030.48 70.40 C 1028.84 72.38 1026.07 71.12 1024.05 70.63 C 1019.84 69.15 1015.53 68.04 1011.27 66.75 C 1006.41 65.22 1002.05 61.19 1001.52 55.92 C 1000.77 49.19 1004.04 42.89 1007.50 37.37 C 1009.78 33.71 1012.23 29.42 1010.88 24.96 C 1009.13 18.30 1003.78 11.77 996.83 10.62 C 992.44 13.55 991.37 19.31 989.98 24.05 M 1835.43 28.56 C 1834.47 32.24 1835.12 37.33 1831.18 39.39 C 1826.99 41.12 1822.10 40.62 1817.86 39.37 C 1812.85 37.87 1810.55 31.13 1804.94 31.48 C 1801.01 33.56 1799.96 38.30 1797.78 41.83 C 1793.83 40.87 1789.82 38.59 1785.69 39.70 C 1783.23 40.73 1783.30 43.76 1783.24 45.98 C 1782.95 71.33 1783.17 96.68 1782.80 122.03 C 1782.62 125.47 1782.59 129.03 1781.28 132.26 C 1779.51 134.64 1774.37 134.16 1774.61 130.56 C 1773.30 113.72 1774.85 96.81 1774.70 79.95 C 1774.16 75.52 1770.98 72.00 1768.58 68.41 C 1765.43 64.55 1762.13 59.91 1757.02 58.72 C 1754.31 58.31 1753.11 61.30 1752.67 63.43 C 1750.97 74.69 1753.58 85.94 1755.88 96.92 C 1758.59 109.46 1756.94 122.32 1757.43 135.01 C 1757.09 139.84 1757.42 145.91 1753.07 149.12 C 1749.50 151.74 1744.90 149.89 1741.01 149.15 C 1736.65 148.29 1732.96 144.00 1728.30 145.39 C 1725.17 147.24 1724.83 151.29 1724.27 154.51 C 1722.81 167.30 1723.44 180.21 1723.60 193.05 C 1723.45 198.80 1728.03 204.62 1734.05 204.54 C 1738.48 204.83 1742.22 201.50 1743.49 197.42 C 1747.74 186.72 1748.89 175.05 1753.36 164.42 C 1755.33 159.37 1760.91 157.60 1765.41 155.51 C 1778.24 150.23 1791.54 146.21 1804.85 142.32 C 1823.61 136.38 1843.31 133.88 1862.95 133.66 C 1866.61 133.72 1870.50 133.53 1873.92 135.10 C 1875.56 135.83 1877.35 138.03 1875.78 139.71 C 1873.08 142.67 1868.63 142.79 1864.92 142.91 C 1853.68 142.19 1842.70 145.23 1831.94 147.99 C 1815.53 152.58 1799.24 157.81 1783.64 164.69 C 1779.18 166.75 1773.79 170.31 1774.31 175.92 C 1775.29 182.54 1783.83 185.16 1789.31 182.26 C 1796.17 178.75 1801.60 173.00 1808.48 169.48 C 1816.25 165.47 1825.08 162.65 1833.92 163.48 C 1838.71 164.09 1839.21 171.17 1835.37 173.37 C 1828.04 177.36 1819.95 179.73 1812.47 183.34 C 1811.69 185.33 1811.10 187.99 1812.30 189.88 C 1814.37 190.89 1816.93 190.00 1819.12 190.87 C 1820.36 193.00 1822.70 195.73 1821.29 198.28 C 1818.22 200.28 1814.40 200.45 1810.93 201.29 C 1803.11 202.47 1795.82 206.06 1787.84 206.41 C 1780.53 207.16 1773.30 205.35 1766.02 205.45 C 1761.83 205.50 1756.79 207.58 1755.72 212.02 C 1754.06 223.31 1768.57 233.40 1778.40 227.32 C 1782.37 223.16 1787.62 220.64 1793.09 219.06 C 1802.14 216.47 1811.58 214.82 1821.03 215.27 C 1822.74 215.30 1825.18 215.69 1825.20 217.94 C 1825.74 225.82 1823.38 233.56 1821.32 241.09 C 1819.89 245.23 1819.10 250.61 1814.40 252.32 C 1803.65 256.70 1791.75 255.63 1780.40 255.77 C 1780.95 257.60 1782.18 259.10 1783.63 260.33 C 1791.24 267.13 1799.63 272.98 1807.45 279.54 C 1810.54 282.45 1814.49 285.08 1818.97 284.35 C 1826.00 283.22 1831.28 277.90 1836.25 273.22 C 1840.81 269.22 1842.75 263.28 1844.29 257.62 C 1847.79 244.30 1848.80 230.51 1850.95 216.95 C 1851.37 215.12 1851.41 212.62 1853.46 211.78 C 1856.50 210.66 1859.81 210.68 1863.02 210.71 C 1873.06 211.08 1883.00 212.66 1893.01 213.39 C 1896.56 213.77 1900.10 211.40 1901.01 207.93 C 1902.68 201.90 1899.99 194.67 1894.45 191.59 C 1889.95 189.36 1884.78 190.02 1879.95 190.13 C 1868.56 190.29 1857.33 192.72 1845.96 193.04 C 1844.17 193.17 1842.48 191.86 1842.50 190.02 C 1842.94 186.56 1844.29 183.17 1846.68 180.59 C 1854.21 171.92 1862.30 163.70 1871.04 156.22 C 1873.48 154.35 1875.89 151.92 1879.12 151.57 C 1889.05 150.56 1899.12 150.91 1908.96 149.01 C 1913.02 148.20 1917.21 147.17 1920.62 144.69 C 1924.65 141.83 1924.71 135.99 1923.22 131.74 C 1920.68 125.90 1914.24 123.43 1908.62 121.57 C 1898.66 119.19 1888.25 119.77 1878.25 117.60 C 1877.14 109.70 1880.90 102.39 1883.38 95.13 C 1886.48 87.27 1889.27 79.13 1894.05 72.09 C 1895.51 69.45 1899.17 70.15 1901.07 68.01 C 1903.51 65.49 1904.22 61.65 1903.66 58.27 C 1902.80 55.74 1900.74 53.86 1898.65 52.33 C 1889.85 46.02 1877.78 44.72 1867.81 48.90 C 1864.38 50.36 1860.59 52.25 1859.43 56.10 C 1863.30 59.35 1868.41 60.46 1872.53 63.34 C 1874.81 64.88 1877.43 67.01 1877.37 70.05 C 1877.24 72.32 1875.85 75.46 1873.05 74.90 C 1868.53 74.34 1864.42 72.17 1860.00 71.19 C 1854.93 70.03 1849.56 67.31 1847.71 62.11 C 1845.59 55.97 1848.09 49.40 1851.16 44.03 C 1853.58 39.61 1857.48 35.35 1856.86 29.94 C 1855.86 22.36 1850.05 16.16 1843.04 13.51 C 1838.17 16.93 1836.82 23.15 1835.43 28.56 M 126.37 27.37 C 121.21 31.10 115.78 36.24 115.63 43.06 C 115.23 54.39 117.18 65.65 117.12 76.98 C 116.89 80.24 116.99 83.95 114.70 86.57 C 112.05 89.66 108.68 92.01 105.35 94.31 C 97.95 99.25 90.15 103.59 82.11 107.40 C 79.04 108.85 75.45 109.97 72.12 108.67 C 68.78 107.77 66.86 104.74 64.62 102.38 C 62.35 101.36 60.27 103.26 58.66 104.62 C 55.65 107.42 52.41 110.63 51.89 114.92 C 51.23 122.10 56.20 128.96 53.80 136.11 C 51.56 143.14 47.59 149.60 46.33 156.95 C 44.80 164.17 46.95 171.54 49.81 178.14 C 53.25 185.91 59.88 191.56 64.23 198.75 C 66.19 202.46 71.14 203.06 74.72 201.57 C 79.79 200.01 81.15 194.11 85.35 191.34 C 93.86 185.20 104.75 183.00 115.09 183.19 C 115.59 222.49 115.30 261.83 117.29 301.09 C 117.76 308.12 117.77 315.50 120.98 321.95 C 122.10 324.28 124.24 326.69 127.09 326.33 C 130.64 325.34 132.54 321.77 133.58 318.51 C 134.85 314.13 135.47 309.60 136.26 305.12 C 139.93 281.49 142.51 257.70 146.15 234.07 C 148.47 217.44 146.00 200.69 146.42 184.01 C 146.69 179.78 146.86 175.08 149.61 171.61 C 152.26 168.96 155.82 167.51 159.16 165.95 C 172.55 160.23 186.65 156.47 200.35 151.60 C 202.69 150.78 205.34 149.75 206.16 147.15 C 208.45 141.00 207.95 134.29 208.60 127.86 C 208.89 124.77 210.33 121.74 212.86 119.87 C 216.90 116.64 222.51 116.68 226.69 113.76 C 229.71 111.45 228.61 107.26 228.66 104.01 C 228.34 95.78 226.90 86.39 219.90 81.06 C 211.06 74.44 199.47 74.63 188.98 73.69 C 178.96 73.45 168.94 72.32 158.92 73.04 C 157.37 72.97 155.61 72.18 155.39 70.45 C 153.64 60.77 155.39 50.87 154.62 41.12 C 151.67 34.09 145.32 28.93 139.04 24.91 C 134.88 21.95 129.98 24.98 126.37 27.37 M 1243.23 53.97 C 1242.21 62.63 1247.41 70.45 1247.29 79.03 C 1247.03 84.75 1241.60 89.38 1236.03 89.60 C 1229.01 89.95 1222.07 91.11 1215.24 92.71 C 1216.41 99.18 1217.09 105.96 1220.11 111.89 C 1224.58 118.03 1232.41 121.17 1235.86 128.17 C 1238.58 134.28 1234.88 140.70 1231.74 145.86 C 1230.29 148.15 1227.62 146.03 1226.37 144.66 C 1223.05 141.51 1219.85 136.36 1214.57 137.30 C 1216.10 143.63 1217.38 150.02 1218.88 156.36 C 1212.38 159.79 1205.28 162.74 1197.91 163.37 C 1192.04 160.29 1188.53 153.72 1182.02 151.69 C 1178.32 151.27 1176.04 155.00 1175.19 158.09 C 1173.53 163.12 1175.21 168.26 1176.40 173.17 C 1177.59 181.55 1177.65 190.05 1178.73 198.45 C 1180.28 211.09 1182.65 223.83 1187.75 235.56 C 1188.64 238.10 1191.10 240.22 1193.93 239.10 C 1200.02 237.02 1203.66 230.74 1205.42 224.88 C 1207.11 212.24 1204.04 199.61 1203.58 186.99 C 1203.10 183.33 1205.95 180.42 1209.03 178.99 C 1213.05 177.13 1217.61 176.09 1222.05 176.69 C 1226.08 177.84 1227.06 182.46 1227.49 186.07 C 1226.19 187.30 1224.92 188.54 1223.66 189.78 C 1221.73 189.60 1218.32 188.03 1217.89 190.98 C 1216.54 198.03 1221.85 205.46 1229.04 206.30 C 1238.00 207.40 1246.77 204.24 1255.12 201.40 C 1256.05 204.81 1257.14 208.19 1257.88 211.66 C 1247.58 215.71 1236.64 217.74 1226.03 220.81 C 1223.03 221.78 1219.74 222.29 1217.13 224.14 C 1216.69 227.29 1219.30 229.66 1221.23 231.77 C 1224.76 235.07 1228.94 238.37 1233.95 238.77 C 1241.58 239.28 1248.17 234.32 1255.65 234.03 C 1257.65 248.43 1257.34 263.04 1257.72 277.55 C 1264.36 277.88 1270.83 273.05 1272.29 266.55 C 1274.99 254.95 1273.99 242.95 1274.63 231.16 C 1274.46 229.39 1275.91 228.22 1277.48 227.79 C 1286.51 224.87 1296.21 224.59 1305.16 221.34 C 1309.52 219.52 1314.25 216.63 1315.70 211.86 C 1316.58 208.77 1313.88 206.55 1311.51 205.23 C 1306.29 202.27 1300.67 199.81 1294.75 198.72 C 1292.43 199.41 1293.52 203.14 1291.44 204.36 C 1287.34 207.40 1281.36 208.63 1276.69 206.32 C 1273.62 203.19 1275.09 198.38 1275.56 194.55 C 1287.00 190.98 1298.57 187.82 1310.07 184.46 C 1309.08 180.59 1308.05 176.73 1306.63 173.00 C 1304.85 174.26 1302.22 175.31 1300.56 173.29 C 1297.94 171.36 1298.14 167.60 1300.38 165.47 C 1304.04 161.71 1308.29 157.48 1313.91 157.37 C 1322.87 156.78 1331.95 157.47 1340.70 159.48 C 1341.19 164.35 1339.95 169.13 1339.31 173.92 C 1337.78 183.00 1337.11 192.21 1335.20 201.24 C 1332.80 213.20 1329.72 225.05 1325.85 236.62 C 1320.20 238.14 1314.61 239.88 1308.95 241.38 C 1311.53 250.96 1314.52 260.50 1318.57 269.58 C 1331.08 265.93 1343.03 259.60 1352.06 250.08 C 1356.74 244.33 1358.79 236.99 1360.88 230.00 C 1365.20 214.24 1367.57 198.03 1370.04 181.91 C 1371.07 174.28 1372.73 166.72 1373.07 159.01 C 1373.25 154.78 1372.13 150.10 1368.48 147.55 C 1363.81 144.38 1358.94 140.68 1353.10 140.35 C 1340.46 139.29 1328.30 143.48 1316.04 145.68 C 1313.04 146.75 1311.88 143.34 1312.13 141.03 C 1311.78 137.19 1313.32 132.06 1309.56 129.46 C 1305.56 126.66 1300.66 125.50 1295.92 124.65 C 1292.78 123.88 1290.25 126.53 1289.47 129.31 C 1287.56 134.30 1287.11 139.81 1284.53 144.54 C 1281.78 149.04 1275.69 149.05 1271.08 148.44 C 1267.86 147.80 1266.72 143.79 1268.12 141.09 C 1270.65 134.78 1274.64 129.17 1278.77 123.81 C 1280.48 121.83 1282.07 119.16 1284.96 118.92 C 1291.78 117.94 1298.36 115.63 1304.42 112.37 C 1313.40 107.63 1322.17 102.44 1330.52 96.66 C 1333.36 94.82 1334.59 91.18 1334.04 87.93 C 1333.04 80.91 1327.19 74.68 1320.03 73.93 C 1312.22 72.95 1304.26 73.36 1296.51 74.63 C 1294.08 68.41 1292.64 61.14 1287.07 56.82 C 1279.76 50.97 1271.02 47.34 1262.71 43.20 C 1259.71 41.42 1256.21 42.63 1253.02 42.17 C 1250.89 40.51 1250.10 37.70 1248.03 35.97 C 1244.83 41.41 1243.94 47.81 1243.23 53.97 M 2117.47 55.05 C 2117.01 64.12 2121.56 72.92 2119.91 81.99 C 2118.95 86.53 2114.07 88.02 2110.10 88.78 C 2106.34 89.39 2102.18 91.30 2098.56 89.33 C 2095.38 87.05 2097.52 81.95 2094.21 79.73 C 2092.07 78.59 2089.49 79.11 2087.57 80.38 C 2087.37 86.59 2086.68 92.78 2086.17 98.97 C 2085.26 106.20 2085.03 113.71 2082.17 120.52 C 2081.40 120.41 2079.88 120.20 2079.12 120.10 C 2073.48 117.25 2069.92 111.81 2065.60 107.44 C 2063.64 105.35 2060.61 105.43 2058.02 105.61 C 2060.83 112.61 2064.59 119.43 2065.48 127.03 C 2066.06 132.71 2062.39 137.85 2057.89 140.89 C 2053.05 143.99 2047.00 144.43 2041.49 143.35 C 2040.62 128.91 2044.54 114.39 2042.02 99.98 C 2040.32 89.42 2031.50 80.17 2021.00 78.10 C 2017.22 76.99 2011.91 79.44 2012.78 84.00 C 2013.97 89.43 2016.93 94.41 2017.24 100.07 C 2018.79 117.99 2018.44 136.01 2018.76 153.99 C 2018.83 182.32 2019.33 210.66 2018.73 239.00 C 2018.42 243.24 2020.43 247.15 2022.00 250.97 C 2023.86 254.82 2026.37 259.33 2030.97 260.20 C 2034.43 260.22 2037.05 257.46 2038.75 254.72 C 2042.31 248.81 2043.60 241.81 2043.71 234.99 C 2044.14 209.61 2041.25 184.34 2040.36 159.01 C 2040.30 156.42 2040.94 151.24 2044.67 152.37 C 2050.58 156.49 2058.11 156.32 2065.02 156.78 C 2070.56 156.71 2076.55 157.34 2081.71 154.86 C 2087.01 151.31 2086.21 144.27 2086.74 138.72 C 2089.15 138.93 2091.60 139.55 2094.07 139.27 C 2096.68 138.73 2098.38 136.41 2099.15 133.98 C 2101.99 125.61 2102.11 116.68 2103.11 107.99 C 2103.67 103.23 2108.74 101.08 2112.56 99.29 C 2120.04 95.59 2128.06 103.14 2135.60 99.67 C 2141.31 92.92 2149.49 88.48 2158.08 86.59 C 2160.05 86.20 2163.47 86.21 2163.75 88.86 C 2164.32 95.70 2161.10 102.14 2158.05 108.05 C 2156.47 110.14 2155.09 113.72 2151.95 113.34 C 2146.33 111.81 2141.19 107.23 2135.03 108.81 C 2126.75 111.03 2117.98 111.41 2109.99 114.52 C 2112.06 119.59 2117.18 122.43 2119.74 127.18 C 2120.06 131.82 2116.48 135.83 2116.58 140.54 C 2121.00 139.89 2124.92 137.61 2129.01 135.93 C 2136.79 132.27 2144.81 128.84 2151.82 123.76 C 2155.19 121.76 2153.07 116.55 2156.74 114.74 C 2168.47 106.84 2182.62 103.97 2195.45 98.40 C 2198.60 97.11 2202.22 94.15 2200.60 90.31 C 2198.14 85.31 2192.98 82.42 2188.30 79.82 C 2181.95 76.77 2175.15 73.54 2167.92 74.35 C 2162.70 74.60 2158.01 77.14 2152.97 78.11 C 2150.51 78.91 2148.69 76.20 2149.25 74.00 C 2149.69 68.95 2150.97 63.03 2147.22 58.84 C 2141.17 52.22 2131.81 48.37 2122.84 49.28 C 2119.84 49.47 2117.48 52.07 2117.47 55.05 M 649.46 50.60 C 641.66 52.71 636.42 62.10 639.12 69.77 C 643.93 79.36 647.42 90.15 646.12 100.99 C 645.55 104.71 644.56 109.38 640.50 110.73 C 632.36 113.67 623.53 113.63 614.99 113.93 C 606.98 114.50 598.96 113.21 590.97 113.67 C 586.31 113.99 584.11 118.79 583.80 122.89 C 582.93 132.40 582.83 142.74 587.82 151.24 C 591.55 157.23 597.71 162.51 605.08 162.68 C 612.89 163.21 620.30 159.72 628.06 159.84 C 632.71 160.04 635.19 164.85 635.20 169.01 C 635.27 175.83 632.14 182.15 628.88 187.96 C 624.72 194.90 619.98 201.54 614.54 207.53 C 607.03 215.14 595.99 216.77 585.90 218.31 C 583.36 218.82 578.99 219.44 579.58 222.99 C 581.49 228.06 585.51 232.04 589.50 235.57 C 599.58 243.89 613.44 245.12 625.99 244.24 C 631.42 243.89 636.41 240.76 639.12 236.05 C 642.48 230.67 645.41 225.04 648.59 219.55 C 654.17 208.42 656.81 196.16 660.18 184.25 C 661.72 178.92 662.95 173.41 665.60 168.49 C 666.24 167.48 667.47 165.43 668.86 166.74 C 673.33 170.49 676.34 175.63 679.79 180.27 C 692.49 198.52 704.22 217.49 718.20 234.81 C 723.12 240.58 728.20 246.93 735.71 249.31 C 750.30 254.43 766.28 253.07 781.19 250.10 C 790.75 248.41 799.96 243.73 806.33 236.31 C 807.35 234.88 809.53 232.09 807.11 230.95 C 787.44 226.59 767.96 220.84 749.59 212.45 C 736.14 206.44 723.89 197.89 713.41 187.56 C 701.59 176.20 692.02 162.80 682.68 149.40 C 679.89 145.39 678.29 139.98 680.55 135.36 C 683.39 129.51 689.30 126.06 694.76 123.00 C 705.34 117.71 716.72 114.04 726.92 107.97 C 729.67 106.12 733.75 103.87 733.06 99.95 C 731.47 93.80 726.38 89.36 721.59 85.55 C 717.51 82.74 712.67 78.88 707.41 80.64 C 700.19 83.66 694.21 89.02 686.90 91.86 C 685.02 92.53 682.82 93.13 680.93 92.22 C 679.11 91.14 678.35 89.00 677.97 87.03 C 676.79 80.33 679.23 73.69 678.90 66.99 C 676.77 61.86 671.96 58.43 667.36 55.64 C 661.97 52.52 655.94 48.91 649.46 50.60 M 2039.23 65.22 C 2037.31 67.24 2034.73 69.96 2035.99 72.97 C 2038.89 79.05 2046.12 81.32 2049.66 86.86 C 2048.38 93.81 2045.52 100.89 2047.21 108.04 C 2050.19 107.58 2051.97 104.95 2053.79 102.81 C 2057.69 98.08 2060.90 92.69 2065.70 88.76 C 2069.67 85.30 2074.28 82.67 2078.40 79.37 C 2083.17 75.68 2085.66 68.86 2083.80 63.05 C 2082.58 59.36 2078.34 58.77 2075.11 57.94 C 2068.51 56.53 2061.73 55.04 2054.96 55.81 C 2048.96 57.36 2043.71 61.06 2039.23 65.22 M 1519.23 60.71 C 1525.64 71.34 1535.10 79.83 1541.65 90.38 C 1543.38 96.06 1542.21 102.42 1539.90 107.80 C 1538.06 112.13 1533.18 113.42 1529.26 115.11 C 1516.36 120.04 1503.16 124.12 1489.98 128.18 C 1484.97 129.76 1479.42 130.02 1474.97 133.06 C 1473.71 133.87 1472.74 135.46 1473.70 136.90 C 1477.06 140.99 1481.36 144.18 1485.17 147.83 C 1488.54 150.78 1491.49 154.36 1495.56 156.43 C 1499.06 158.24 1503.26 157.45 1506.67 155.79 C 1518.41 150.23 1529.79 143.95 1541.63 138.60 C 1543.69 137.78 1546.06 136.70 1548.29 137.63 C 1550.30 140.21 1548.05 143.48 1546.92 145.97 C 1538.15 160.74 1529.58 175.65 1520.10 189.98 C 1509.72 204.48 1498.74 218.56 1487.24 232.18 C 1486.50 233.33 1484.68 234.64 1485.87 236.13 C 1493.44 236.08 1500.39 232.34 1507.08 229.17 C 1523.24 220.43 1537.30 208.19 1549.76 194.79 C 1556.51 187.78 1560.21 178.64 1564.00 169.86 C 1565.57 166.78 1566.72 162.85 1570.02 161.22 C 1574.80 160.43 1578.95 163.66 1582.41 166.52 C 1585.51 169.57 1589.84 173.20 1588.51 178.11 C 1586.96 186.70 1583.90 194.93 1580.97 203.12 C 1577.99 210.88 1575.05 218.68 1571.19 226.05 C 1569.88 228.72 1567.07 230.82 1564.00 230.42 C 1554.73 229.08 1546.14 225.04 1537.99 220.59 C 1538.41 225.13 1541.14 228.96 1542.99 233.00 C 1547.88 242.20 1552.70 251.60 1559.45 259.60 C 1563.15 264.23 1569.88 264.26 1574.92 262.00 C 1581.77 258.95 1588.44 255.18 1594.05 250.16 C 1601.05 243.44 1607.74 235.51 1609.80 225.78 C 1613.55 210.70 1616.48 195.44 1619.26 180.16 C 1620.17 173.80 1621.96 167.47 1621.70 161.00 C 1621.52 156.52 1616.94 154.19 1612.99 153.82 C 1602.99 152.70 1592.87 152.50 1582.95 150.75 C 1580.59 150.36 1578.18 149.80 1576.29 148.26 C 1578.95 145.19 1582.40 142.29 1583.05 138.05 C 1583.37 135.78 1583.53 133.08 1581.69 131.40 C 1579.30 129.05 1577.41 125.67 1578.28 122.23 C 1579.26 119.60 1582.43 119.08 1584.88 118.67 C 1601.84 116.96 1618.95 116.26 1635.70 112.88 C 1639.72 111.93 1644.35 110.29 1646.19 106.22 C 1647.90 101.85 1644.92 97.08 1641.10 94.99 C 1634.96 91.63 1628.56 88.75 1622.15 85.96 C 1618.18 84.57 1614.29 81.96 1609.97 82.25 C 1606.91 85.16 1605.21 89.43 1601.40 91.52 C 1596.02 94.45 1589.93 95.57 1584.04 96.94 C 1580.65 97.41 1576.79 99.39 1573.61 97.34 C 1571.41 94.79 1574.84 92.13 1575.61 89.66 C 1577.91 82.63 1578.02 74.59 1575.27 67.67 C 1572.78 62.28 1566.17 61.54 1560.97 61.11 C 1550.63 60.43 1540.32 59.50 1529.99 58.81 C 1526.36 58.78 1522.26 58.30 1519.23 60.71 M 366.10 75.12 C 362.49 76.49 359.23 79.92 359.87 84.05 C 361.65 115.69 365.98 147.26 364.89 179.02 C 364.60 185.56 364.46 192.22 362.56 198.54 C 361.73 202.03 357.89 202.96 354.94 203.93 C 346.82 206.14 338.37 207.38 329.95 207.32 C 328.50 207.56 327.30 206.30 327.18 204.95 C 325.54 195.16 329.38 185.01 326.49 175.36 C 323.67 170.31 320.77 165.25 317.40 160.54 C 315.59 158.32 313.35 155.21 310.04 156.16 C 307.79 157.19 307.01 159.90 306.60 162.15 C 305.81 168.07 306.51 174.07 306.05 180.02 C 305.53 190.63 301.40 200.59 299.88 211.03 C 298.64 219.31 298.07 227.80 299.38 236.10 C 300.38 241.86 302.23 248.39 307.59 251.54 C 312.70 254.28 318.54 251.58 323.33 249.40 C 337.89 242.13 351.65 232.26 368.05 229.58 C 372.47 228.81 376.87 230.10 381.09 231.31 C 383.56 230.67 385.42 228.92 386.94 226.96 C 391.39 221.09 398.28 217.90 404.75 214.78 C 409.91 212.66 415.35 210.14 421.07 210.68 C 423.54 211.08 424.27 213.80 424.66 215.90 C 426.27 225.91 424.60 236.22 426.84 246.15 C 427.79 251.63 435.45 252.01 439.04 248.91 C 445.28 243.68 450.51 237.03 453.41 229.37 C 457.06 219.96 458.64 209.93 460.03 199.99 C 461.14 191.37 462.08 182.70 462.04 174.01 C 461.70 169.09 461.71 163.63 458.47 159.58 C 455.02 155.07 451.06 150.95 446.87 147.13 C 442.55 143.03 435.41 146.51 433.28 151.32 C 429.93 158.76 433.20 167.03 431.83 174.76 C 431.00 179.55 426.93 182.87 422.65 184.62 C 416.40 187.19 410.05 189.60 403.52 191.32 C 400.73 191.83 397.10 192.44 395.07 189.93 C 393.02 187.43 393.63 183.96 393.47 180.96 C 393.87 154.63 396.12 128.34 395.76 102.00 C 395.55 97.49 395.79 92.64 393.34 88.64 C 390.03 82.86 385.39 77.64 379.43 74.52 C 375.27 72.23 370.26 73.51 366.10 75.12 M 2143.46 134.56 C 2138.94 136.52 2136.70 141.20 2133.83 144.89 C 2130.88 148.84 2126.27 150.96 2121.86 152.83 C 2114.61 155.79 2107.81 159.77 2100.44 162.43 C 2094.29 164.92 2087.78 166.69 2082.10 170.18 C 2079.94 171.47 2077.66 174.11 2079.28 176.68 C 2081.39 179.98 2085.14 181.98 2088.80 183.15 C 2095.29 184.46 2101.83 185.59 2108.35 186.85 C 2109.06 192.49 2104.71 196.50 2101.66 200.61 C 2089.76 215.32 2077.25 229.51 2064.63 243.58 C 2063.99 244.44 2062.72 245.18 2063.22 246.39 C 2073.65 249.35 2083.51 242.64 2091.10 236.20 C 2100.71 227.74 2109.49 218.32 2117.22 208.10 C 2122.13 201.70 2126.53 194.92 2131.71 188.72 C 2133.25 186.96 2134.79 184.82 2137.34 184.53 C 2138.12 190.03 2136.55 195.46 2135.86 200.87 C 2134.15 213.09 2132.65 225.59 2134.74 237.87 C 2135.76 243.37 2137.70 249.12 2142.10 252.86 C 2148.34 257.76 2156.20 260.12 2163.98 261.07 C 2178.42 262.54 2192.88 259.65 2206.63 255.40 C 2210.36 254.17 2214.25 252.93 2217.32 250.36 C 2220.54 247.51 2221.04 242.98 2221.87 239.01 C 2224.12 230.06 2220.50 221.00 2217.14 212.80 C 2214.96 208.53 2213.25 203.47 2209.08 200.72 C 2206.24 210.61 2201.37 219.93 2194.93 227.96 C 2187.37 236.60 2174.86 237.75 2164.12 236.93 C 2160.03 236.82 2155.31 235.24 2154.06 230.90 C 2150.73 219.92 2151.89 208.26 2154.18 197.18 C 2155.16 190.48 2157.52 183.84 2156.80 177.00 C 2153.28 175.20 2147.80 174.72 2146.95 170.07 C 2145.91 163.98 2151.68 160.19 2155.57 156.62 C 2159.47 153.57 2162.30 148.99 2162.46 143.95 C 2162.51 141.20 2159.88 139.48 2157.79 138.25 C 2153.44 135.94 2148.56 132.89 2143.46 134.56 M 408.36 403.91 C 405.72 415.71 406.19 427.92 406.50 439.93 C 406.92 448.41 407.40 457.88 413.34 464.56 C 420.77 473.26 436.34 474.63 443.74 465.17 C 444.09 466.72 444.43 468.28 444.74 469.85 C 449.11 469.85 453.47 469.85 457.83 469.85 C 457.83 454.98 457.83 440.11 457.83 425.23 C 449.20 425.25 440.57 425.22 431.95 425.25 C 431.89 430.03 431.73 434.81 432.09 439.57 C 434.55 439.54 437.00 439.53 439.46 439.52 C 439.56 444.25 439.90 449.28 437.80 453.67 C 436.40 456.71 432.39 457.47 429.53 456.26 C 426.65 454.68 426.38 451.01 426.02 448.10 C 425.35 439.40 425.62 430.67 425.59 421.96 C 425.77 416.64 425.44 411.17 427.05 406.03 C 428.27 401.72 435.01 400.88 437.19 404.80 C 438.97 408.14 438.67 412.05 439.02 415.70 C 445.02 415.65 451.01 415.69 457.01 415.68 C 457.55 407.63 456.38 398.51 450.29 392.65 C 444.07 386.84 434.90 386.51 426.92 387.47 C 418.20 388.59 410.12 395.11 408.36 403.91 M 504.88 393.88 C 499.64 398.70 498.42 406.13 497.83 412.88 C 497.16 423.89 497.15 434.94 497.86 445.96 C 498.43 452.27 499.52 459.11 504.02 463.94 C 509.21 469.81 517.41 471.89 525.00 471.66 C 532.46 471.75 540.69 469.66 545.44 463.47 C 550.86 456.34 551.35 446.85 551.01 438.24 C 544.76 438.26 538.52 438.25 532.28 438.25 C 532.16 443.33 532.65 448.74 530.41 453.47 C 527.72 458.11 519.43 457.13 518.23 451.73 C 516.38 444.31 516.90 436.55 516.67 428.96 C 516.86 421.67 516.38 414.22 518.23 407.10 C 519.65 401.90 527.70 401.11 530.34 405.66 C 532.29 409.23 532.28 413.45 532.50 417.41 C 538.69 417.41 544.88 417.42 551.08 417.41 C 550.88 410.59 550.29 403.42 546.60 397.48 C 542.84 391.01 535.37 387.58 528.09 387.21 C 519.95 386.54 510.83 387.72 504.88 393.88 M 580.51 387.82 C 571.96 389.42 564.66 396.32 563.18 404.98 C 560.98 416.81 561.50 428.96 561.76 440.93 C 562.18 449.04 562.59 458.23 568.63 464.41 C 575.85 471.92 587.39 472.72 597.08 470.84 C 605.40 469.24 612.50 462.58 614.23 454.23 C 616.58 443.32 615.78 432.07 615.87 420.99 C 615.50 411.82 615.63 401.26 608.76 394.22 C 601.64 386.60 590.13 386.19 580.51 387.82 M 789.66 393.61 C 784.78 398.07 783.36 404.84 782.63 411.13 C 781.46 423.09 781.59 435.15 782.55 447.13 C 783.16 453.87 784.99 461.03 790.09 465.82 C 797.91 473.42 812.32 474.09 819.40 465.13 C 819.68 466.70 819.98 468.26 820.28 469.84 C 824.66 469.85 829.04 469.84 833.42 469.87 C 833.41 454.97 833.52 440.07 833.36 425.17 C 824.76 425.30 816.16 425.23 807.56 425.22 C 807.51 429.99 807.53 434.77 807.54 439.55 C 809.98 439.54 812.44 439.53 814.90 439.50 C 815.28 444.13 815.39 449.06 813.50 453.40 C 811.79 457.60 804.75 458.15 802.87 453.85 C 801.32 450.12 801.47 445.97 801.25 442.01 C 801.15 432.77 801.04 423.51 801.36 414.27 C 801.62 411.17 801.62 407.87 803.07 405.04 C 804.97 401.40 811.17 401.28 812.92 405.12 C 814.52 408.39 814.32 412.14 814.52 415.68 C 820.54 415.67 826.57 415.69 832.60 415.67 C 832.89 409.24 832.40 402.47 829.13 396.78 C 825.90 391.05 819.47 387.80 813.07 387.28 C 804.90 386.45 795.78 387.59 789.66 393.61 M 948.49 387.68 C 941.71 388.93 935.32 393.13 932.34 399.47 C 928.99 406.96 929.29 415.36 928.86 423.38 C 928.85 433.57 928.53 443.91 930.55 453.95 C 931.98 461.49 937.82 467.87 945.15 470.09 C 951.85 472.19 959.21 472.18 966.00 470.43 C 973.76 468.41 980.08 461.83 981.62 453.93 C 983.94 442.79 983.20 431.31 983.23 420.01 C 982.78 411.08 982.71 400.82 975.94 394.03 C 968.93 386.75 957.87 386.27 948.49 387.68 M 1086.74 390.72 C 1081.21 394.23 1078.16 400.68 1077.81 407.10 C 1077.33 413.68 1078.62 420.89 1083.20 425.90 C 1088.78 431.46 1095.75 435.28 1102.07 439.91 C 1106.01 442.73 1109.09 447.97 1106.77 452.79 C 1105.14 457.04 1098.50 457.75 1096.02 453.97 C 1093.95 450.41 1094.41 446.11 1094.29 442.17 C 1088.40 442.22 1082.51 442.08 1076.63 442.25 C 1076.22 450.25 1076.81 459.32 1082.74 465.37 C 1089.27 471.87 1099.40 472.43 1108.02 471.09 C 1115.93 469.84 1122.73 463.71 1124.61 455.89 C 1126.49 448.04 1126.47 439.00 1121.85 432.07 C 1115.69 424.30 1105.81 421.00 1098.73 414.28 C 1096.02 411.81 1094.53 407.72 1096.30 404.27 C 1097.69 400.49 1103.64 399.88 1105.81 403.23 C 1107.84 406.10 1107.72 409.77 1107.95 413.13 C 1113.60 413.13 1119.26 413.15 1124.93 413.12 C 1125.51 407.18 1124.60 400.82 1121.24 395.77 C 1117.90 390.74 1111.98 387.98 1106.11 387.35 C 1099.54 386.71 1092.40 386.90 1086.74 390.72 M 1485.00 402.06 C 1483.21 409.78 1483.81 418.73 1488.90 425.13 C 1494.60 431.31 1502.17 435.22 1508.83 440.21 C 1512.67 443.00 1515.28 448.22 1513.12 452.84 C 1511.42 457.16 1504.48 457.74 1502.21 453.69 C 1500.34 450.17 1500.71 446.03 1500.67 442.18 C 1494.80 442.16 1488.94 442.17 1483.09 442.18 C 1482.48 450.28 1483.21 459.60 1489.37 465.61 C 1495.67 471.74 1505.26 472.29 1513.52 471.26 C 1521.20 470.21 1528.21 464.88 1530.52 457.37 C 1532.97 449.29 1533.02 439.82 1528.47 432.45 C 1522.46 424.52 1512.55 421.19 1505.39 414.57 C 1502.61 412.12 1500.80 408.09 1502.56 404.51 C 1503.69 401.15 1508.15 400.09 1510.97 401.96 C 1514.17 404.69 1514.09 409.29 1514.33 413.14 C 1519.99 413.13 1525.64 413.12 1531.31 413.15 C 1531.94 405.79 1530.47 397.49 1524.64 392.44 C 1518.50 387.01 1509.71 386.55 1501.96 387.41 C 1494.04 388.36 1486.91 394.24 1485.00 402.06 M 2030.19 401.95 C 2028.28 409.65 2028.94 418.62 2033.96 425.06 C 2039.62 431.22 2047.16 435.15 2053.82 440.09 C 2057.49 442.82 2060.38 447.72 2058.45 452.33 C 2057.09 457.07 2049.67 457.95 2047.32 453.64 C 2045.52 450.11 2045.84 446.00 2045.79 442.17 C 2039.91 442.18 2034.04 442.15 2028.17 442.19 C 2027.80 449.67 2028.14 457.96 2033.07 464.05 C 2037.76 469.97 2045.77 471.84 2053.01 471.66 C 2060.43 471.86 2068.47 469.24 2072.84 462.89 C 2077.73 455.68 2078.20 446.15 2076.09 437.91 C 2074.29 430.54 2067.48 426.31 2061.58 422.41 C 2056.70 419.07 2050.86 416.40 2047.83 411.07 C 2045.44 406.85 2048.51 399.89 2053.96 401.16 C 2059.21 402.25 2059.26 408.85 2059.46 413.14 C 2065.17 413.01 2070.90 413.41 2076.61 412.87 C 2076.87 405.73 2075.68 397.76 2070.10 392.74 C 2063.92 387.00 2054.82 386.51 2046.87 387.44 C 2039.10 388.46 2032.08 394.25 2030.19 401.95 M 46.60 388.41 C 46.68 415.56 46.60 442.71 46.64 469.86 C 52.38 469.84 58.12 469.84 63.86 469.86 C 64.08 452.93 63.54 436.00 61.84 419.16 C 67.08 436.03 72.24 452.92 77.36 469.83 C 84.03 469.88 90.70 469.82 97.37 469.86 C 97.44 442.72 97.32 415.57 97.43 388.43 C 91.75 388.28 86.06 388.39 80.38 388.36 C 80.38 399.54 80.22 410.74 81.06 421.90 C 81.24 426.95 81.99 432.00 81.61 437.06 C 76.89 420.73 71.52 404.61 66.54 388.36 C 59.90 388.38 53.25 388.30 46.60 388.41 M 122.28 388.33 C 116.38 415.51 110.36 442.68 104.64 469.90 C 111.05 469.77 117.47 469.92 123.88 469.80 C 124.56 464.61 125.38 459.44 126.18 454.27 C 131.10 454.30 136.02 454.27 140.93 454.30 C 141.75 459.48 142.51 464.67 143.34 469.85 C 149.68 469.86 156.03 469.82 162.38 469.87 C 156.60 442.69 150.78 415.50 144.88 388.34 C 137.35 388.36 129.82 388.38 122.28 388.33 M 169.90 388.30 C 169.70 415.49 169.84 442.68 169.83 469.86 C 175.59 469.82 181.35 469.89 187.11 469.82 C 187.18 457.85 186.98 445.88 186.23 433.94 C 185.95 429.19 185.25 424.46 185.36 419.70 C 190.15 436.48 195.56 453.07 200.50 469.81 C 207.19 469.89 213.87 469.85 220.56 469.83 C 220.52 442.68 220.53 415.52 220.55 388.36 C 214.86 388.38 209.17 388.29 203.48 388.42 C 203.34 404.95 203.83 421.47 205.33 437.94 C 199.94 421.46 194.93 404.87 189.70 388.35 C 183.10 388.34 176.50 388.42 169.90 388.30 M 233.50 388.43 C 233.62 415.57 233.52 442.71 233.55 469.85 C 239.95 469.84 246.34 469.85 252.73 469.85 C 252.72 458.44 252.73 447.04 252.72 435.64 C 260.46 435.66 268.20 435.56 275.94 435.70 C 276.19 430.20 276.02 424.69 276.06 419.18 C 268.28 419.19 260.51 419.19 252.73 419.18 C 252.71 414.28 252.76 409.38 252.68 404.48 C 261.07 404.29 269.47 404.47 277.87 404.38 C 277.83 399.03 277.87 393.69 277.84 388.34 C 263.06 388.42 248.28 388.26 233.50 388.43 M 296.59 388.36 C 290.71 415.51 284.77 442.66 278.93 469.83 C 285.33 469.87 291.74 469.84 298.14 469.85 C 298.90 464.66 299.77 459.49 300.49 454.29 C 305.45 454.30 310.41 454.22 315.37 454.35 C 316.02 459.50 316.95 464.60 317.57 469.75 C 323.96 469.96 330.36 469.81 336.76 469.84 C 330.94 442.70 325.04 415.57 319.33 388.41 C 311.75 388.29 304.17 388.39 296.59 388.36 M 344.16 388.35 C 344.14 415.52 344.16 442.68 344.15 469.85 C 349.89 469.85 355.64 469.84 361.38 469.86 C 361.64 453.07 361.02 436.28 359.39 419.57 C 364.79 436.26 369.69 453.10 374.90 469.85 C 381.56 469.85 388.22 469.84 394.88 469.86 C 394.87 442.68 394.90 415.51 394.86 388.34 C 389.22 388.37 383.58 388.38 377.94 388.33 C 377.45 404.64 378.39 420.95 379.51 437.22 C 373.98 421.03 369.34 404.53 363.93 388.30 C 357.34 388.42 350.75 388.34 344.16 388.35 M 627.34 388.35 C 627.33 415.52 627.35 442.68 627.33 469.84 C 641.29 469.85 655.25 469.86 669.21 469.84 C 669.16 464.34 669.32 458.85 669.10 453.36 C 661.55 453.47 654.00 453.35 646.46 453.43 C 646.40 431.76 646.40 410.08 646.46 388.41 C 640.08 388.30 633.71 388.39 627.34 388.35 M 677.60 388.42 C 677.70 415.57 677.60 442.71 677.64 469.86 C 691.59 469.85 705.53 469.83 719.47 469.87 C 719.51 464.39 719.47 458.91 719.51 453.44 C 711.92 453.37 704.33 453.42 696.73 453.41 C 696.73 431.72 696.74 410.04 696.73 388.35 C 690.35 388.39 683.97 388.28 677.60 388.42 M 728.08 388.28 C 727.75 415.47 728.03 442.66 727.94 469.85 C 742.69 469.85 757.43 469.85 772.18 469.85 C 772.20 464.40 772.12 458.95 772.24 453.51 C 763.80 453.27 755.35 453.48 746.90 453.40 C 746.89 447.48 746.89 441.56 746.90 435.64 C 754.70 435.57 762.51 435.76 770.31 435.54 C 770.19 430.09 770.26 424.64 770.25 419.19 C 762.46 419.18 754.68 419.19 746.90 419.18 C 746.92 414.24 746.79 409.31 747.01 404.38 C 755.40 404.43 763.79 404.38 772.19 404.40 C 772.14 399.04 772.29 393.67 772.08 388.30 C 757.42 388.38 742.75 388.42 728.08 388.28 M 846.00 388.32 C 845.79 415.50 845.95 442.68 845.92 469.85 C 860.66 469.85 875.40 469.85 890.14 469.85 C 890.11 464.35 890.25 458.85 890.05 453.36 C 881.65 453.46 873.26 453.38 864.87 453.40 C 864.87 447.48 864.87 441.56 864.87 435.64 C 872.68 435.55 880.48 435.80 888.29 435.51 C 888.14 430.07 888.26 424.62 888.19 419.18 C 880.42 419.19 872.65 419.18 864.88 419.18 C 864.93 414.23 864.69 409.27 865.05 404.33 C 873.41 404.49 881.78 404.35 890.15 404.41 C 890.11 399.04 890.23 393.68 890.06 388.32 C 875.37 388.39 860.68 388.38 846.00 388.32 M 995.14 388.33 C 995.07 415.50 995.13 442.68 995.11 469.86 C 1001.49 469.84 1007.88 469.85 1014.27 469.85 C 1014.25 458.46 1014.31 447.07 1014.24 435.68 C 1022.02 435.58 1029.80 435.66 1037.59 435.64 C 1037.58 430.15 1037.57 424.67 1037.60 419.19 C 1029.82 419.15 1022.04 419.24 1014.27 419.14 C 1014.27 414.22 1014.26 409.31 1014.28 404.39 C 1022.66 404.41 1031.05 404.40 1039.44 404.40 C 1039.44 399.07 1039.40 393.73 1039.47 388.40 C 1024.69 388.28 1009.91 388.43 995.14 388.33 M 1136.09 388.33 C 1136.08 405.89 1135.93 423.46 1136.19 441.02 C 1136.48 449.17 1136.57 458.32 1142.23 464.84 C 1146.98 470.54 1154.90 471.83 1161.93 471.66 C 1169.22 471.72 1177.44 470.15 1182.14 464.03 C 1187.92 456.67 1187.21 446.77 1187.32 437.96 C 1187.34 421.45 1187.25 404.94 1187.36 388.44 C 1181.06 388.27 1174.76 388.39 1168.47 388.36 C 1168.46 404.90 1168.51 421.44 1168.45 437.99 C 1168.22 442.98 1168.63 448.12 1167.20 452.97 C 1165.84 457.53 1158.19 457.61 1156.60 453.18 C 1155.31 449.26 1155.49 445.06 1155.35 440.99 C 1155.35 423.47 1155.30 405.94 1155.37 388.41 C 1148.94 388.28 1142.52 388.42 1136.09 388.33 M 1200.23 388.35 C 1200.22 415.52 1200.24 442.68 1200.22 469.85 C 1205.97 469.85 1211.71 469.84 1217.47 469.86 C 1217.64 452.85 1217.21 435.82 1215.34 418.91 C 1220.68 435.86 1225.72 452.90 1231.01 469.87 C 1237.65 469.84 1244.30 469.84 1250.94 469.86 C 1250.92 442.68 1251.02 415.49 1250.89 388.31 C 1245.27 388.40 1239.64 388.36 1234.03 388.34 C 1233.44 404.71 1234.53 421.07 1235.60 437.39 C 1230.08 421.17 1225.59 404.56 1219.92 388.41 C 1213.35 388.24 1206.79 388.43 1200.23 388.35 M 1285.89 388.35 C 1291.65 404.02 1298.27 419.37 1304.15 434.99 C 1304.76 446.56 1304.25 458.23 1304.40 469.83 C 1310.89 469.87 1317.38 469.84 1323.88 469.85 C 1324.05 458.28 1323.50 446.64 1324.15 435.11 C 1330.10 419.46 1336.45 403.96 1342.61 388.39 C 1335.67 388.34 1328.73 388.33 1321.80 388.40 C 1319.25 396.82 1316.77 405.27 1314.03 413.63 C 1311.30 405.26 1308.83 396.81 1306.28 388.38 C 1299.48 388.32 1292.68 388.38 1285.89 388.35 M 1355.24 388.32 C 1349.31 415.50 1343.35 442.68 1337.56 469.89 C 1343.95 469.81 1350.34 469.85 1356.74 469.86 C 1357.56 464.67 1358.30 459.47 1359.14 454.28 C 1364.04 454.29 1368.94 454.30 1373.86 454.27 C 1374.73 459.45 1375.45 464.66 1376.29 469.85 C 1382.65 469.85 1389.01 469.85 1395.38 469.84 C 1389.50 442.69 1383.73 415.51 1377.86 388.35 C 1370.32 388.35 1362.78 388.39 1355.24 388.32 M 1393.59 388.44 C 1393.69 393.76 1393.62 399.08 1393.64 404.40 C 1398.70 404.40 1403.75 404.41 1408.82 404.39 C 1408.85 426.21 1408.82 448.03 1408.83 469.85 C 1415.18 469.85 1421.54 469.84 1427.90 469.86 C 1427.90 448.04 1427.89 426.22 1427.90 404.40 C 1433.19 404.41 1438.48 404.35 1443.78 404.45 C 1443.90 399.08 1443.82 393.71 1443.83 388.35 C 1427.08 388.43 1410.34 388.24 1393.59 388.44 M 1542.41 388.36 C 1542.41 415.52 1542.44 442.67 1542.39 469.83 C 1557.14 469.87 1571.89 469.85 1586.64 469.84 C 1586.61 464.36 1586.63 458.88 1586.63 453.40 C 1578.22 453.42 1569.82 453.38 1561.42 453.42 C 1561.38 447.48 1561.35 441.55 1561.43 435.61 C 1569.18 435.67 1576.93 435.62 1584.68 435.64 C 1584.68 430.15 1584.67 424.67 1584.69 419.19 C 1576.96 419.22 1569.24 419.10 1561.53 419.26 C 1561.24 414.31 1561.44 409.35 1561.39 404.40 C 1569.78 404.42 1578.18 404.36 1586.58 404.43 C 1586.67 399.07 1586.60 393.71 1586.63 388.36 C 1571.89 388.36 1557.15 388.36 1542.41 388.36 M 1598.35 388.36 C 1598.34 415.51 1598.38 442.67 1598.33 469.82 C 1604.07 469.88 1609.82 469.82 1615.57 469.87 C 1615.69 452.88 1615.50 435.82 1613.36 418.94 C 1618.87 435.80 1623.85 452.84 1629.04 469.81 C 1635.72 469.90 1642.40 469.83 1649.08 469.85 C 1649.03 442.67 1649.24 415.49 1648.98 388.31 C 1643.36 388.40 1637.75 388.35 1632.14 388.35 C 1631.82 404.74 1632.48 421.12 1633.72 437.47 C 1628.42 421.17 1623.39 404.78 1618.31 388.41 C 1611.65 388.29 1605.00 388.38 1598.35 388.36 M 1690.68 388.44 C 1690.86 406.28 1690.56 424.12 1690.85 441.96 C 1691.18 449.86 1691.47 458.69 1696.99 464.95 C 1702.10 470.96 1710.61 471.93 1718.02 471.64 C 1725.36 471.57 1733.59 469.36 1737.74 462.79 C 1742.81 454.86 1741.91 444.99 1741.93 436.01 C 1741.84 420.12 1742.03 404.22 1741.87 388.33 C 1735.64 388.38 1729.41 388.36 1723.19 388.34 C 1723.15 400.56 1723.18 412.79 1723.18 425.01 C 1722.98 434.05 1723.74 443.21 1722.15 452.15 C 1721.38 457.45 1712.75 457.95 1711.19 452.95 C 1709.55 446.77 1710.20 440.28 1710.10 433.96 C 1710.00 418.75 1710.32 403.52 1709.89 388.32 C 1703.48 388.44 1697.08 388.25 1690.68 388.44 M 1755.34 388.36 C 1755.33 415.52 1755.36 442.67 1755.33 469.83 C 1761.07 469.87 1766.82 469.83 1772.58 469.86 C 1772.73 452.87 1772.38 435.84 1770.43 418.95 C 1775.77 435.86 1780.89 452.84 1786.03 469.81 C 1792.71 469.90 1799.39 469.82 1806.07 469.85 C 1806.03 442.67 1806.22 415.49 1805.98 388.31 C 1800.36 388.39 1794.75 388.36 1789.15 388.34 C 1788.77 404.63 1789.53 420.90 1790.64 437.15 C 1785.31 420.98 1780.36 404.67 1775.31 388.41 C 1768.65 388.29 1761.99 388.39 1755.34 388.36 M 1819.11 388.34 C 1819.08 415.51 1819.11 442.69 1819.10 469.86 C 1825.45 469.84 1831.80 469.85 1838.16 469.85 C 1838.12 442.67 1838.28 415.49 1838.08 388.31 C 1831.75 388.40 1825.43 388.35 1819.11 388.34 M 1845.43 388.36 C 1851.53 415.53 1857.47 442.73 1863.62 469.89 C 1871.03 469.79 1878.44 469.90 1885.86 469.82 C 1892.00 442.72 1898.00 415.58 1904.33 388.53 C 1897.61 388.13 1890.88 388.49 1884.17 388.32 C 1881.73 402.18 1879.52 416.07 1877.17 429.94 C 1876.07 435.98 1876.01 442.18 1874.57 448.16 C 1874.48 443.05 1873.62 438.01 1872.94 432.96 C 1870.52 418.09 1868.07 403.22 1865.66 388.35 C 1858.91 388.37 1852.17 388.34 1845.43 388.36 M 1911.45 388.38 C 1911.47 415.52 1911.51 442.66 1911.43 469.80 C 1926.19 469.90 1940.95 469.83 1955.71 469.84 C 1955.69 464.36 1955.70 458.88 1955.70 453.40 C 1947.29 453.42 1938.88 453.38 1930.48 453.42 C 1930.43 447.48 1930.42 441.55 1930.48 435.62 C 1938.23 435.66 1945.98 435.62 1953.73 435.64 C 1953.73 430.15 1953.72 424.67 1953.75 419.19 C 1945.96 419.09 1938.16 419.38 1930.39 419.03 C 1930.49 414.15 1930.43 409.27 1930.45 404.40 C 1938.83 404.44 1947.22 404.32 1955.61 404.47 C 1955.79 399.10 1955.66 393.72 1955.70 388.36 C 1940.95 388.37 1926.20 388.33 1911.45 388.38 M 1967.41 388.36 C 1967.40 415.51 1967.46 442.66 1967.38 469.81 C 1973.67 469.89 1979.97 469.83 1986.28 469.85 C 1986.33 458.98 1986.17 448.11 1986.36 437.25 C 1990.53 437.36 1996.59 437.01 1998.02 442.07 C 2000.39 451.15 1997.35 460.74 2000.11 469.82 C 2007.49 469.90 2014.88 469.78 2022.27 469.89 C 2017.01 463.08 2018.44 453.97 2017.76 445.95 C 2017.58 439.44 2014.86 432.74 2009.05 429.34 C 2018.76 423.62 2020.46 410.61 2017.32 400.66 C 2015.24 394.02 2008.87 389.42 2002.01 388.94 C 1990.52 387.77 1978.94 388.61 1967.41 388.36 M 2087.51 388.40 C 2087.59 415.55 2087.49 442.71 2087.56 469.87 C 2093.90 469.83 2100.26 469.87 2106.62 469.84 C 2106.59 442.68 2106.61 415.52 2106.61 388.36 C 2100.24 388.38 2093.87 388.31 2087.51 388.40 M 2114.41 388.39 C 2114.45 393.73 2114.42 399.06 2114.43 404.40 C 2119.48 404.40 2124.53 404.40 2129.60 404.40 C 2129.61 426.22 2129.55 448.05 2129.63 469.87 C 2135.98 469.82 2142.34 469.87 2148.70 469.84 C 2148.64 448.05 2148.77 426.27 2148.64 404.48 C 2153.89 404.31 2159.15 404.44 2164.42 404.39 C 2164.41 399.00 2164.51 393.61 2164.20 388.22 C 2147.61 388.56 2131.00 388.23 2114.41 388.39 M 2168.64 398.59 C 2173.27 410.27 2177.91 421.95 2182.55 433.63 C 2183.56 435.97 2183.24 438.57 2183.30 441.05 C 2183.25 450.65 2183.30 460.24 2183.27 469.84 C 2189.76 469.86 2196.26 469.85 2202.76 469.84 C 2202.80 458.52 2202.63 447.19 2202.83 435.88 C 2208.45 419.87 2215.57 404.37 2221.22 388.36 C 2214.36 388.37 2207.51 388.33 2200.67 388.39 C 2198.00 396.67 2195.92 405.17 2192.78 413.29 C 2190.12 405.05 2187.61 396.76 2185.21 388.45 C 2178.47 387.95 2171.62 389.05 2164.98 387.81 C 2165.15 391.67 2167.49 394.97 2168.64 398.59 M 1441.50 447.36 C 1452.50 447.32 1463.50 447.33 1474.50 447.36 C 1474.57 441.89 1474.47 436.42 1474.58 430.95 C 1463.58 430.62 1452.58 430.98 1441.58 430.76 C 1441.33 436.29 1441.47 441.83 1441.50 447.36 Z"
       id="path13098" />
    <path
       fill="#ffffff"
       opacity="1.00"
       d=" M 955.39 51.11 C 961.73 50.48 966.82 56.21 968.05 61.97 C 969.27 67.57 966.14 72.76 963.69 77.54 C 961.95 80.51 959.28 84.54 955.28 83.61 C 953.89 82.67 954.25 80.49 953.91 79.01 C 953.47 69.69 954.47 60.37 955.39 51.11 Z"
       id="path13100" />
    <path
       fill="#ffffff"
       opacity="1.00"
       d=" M 1800.95 54.07 C 1809.77 53.60 1815.99 64.16 1813.05 72.02 C 1811.27 76.59 1809.28 81.25 1805.90 84.87 C 1804.49 86.57 1802.25 86.75 1800.23 86.88 C 1797.67 76.12 1800.14 64.93 1800.95 54.07 Z"
       id="path13102" />
    <path
       fill="#ffffff"
       opacity="1.00"
       d=" M 981.65 72.38 C 984.59 72.40 987.61 72.47 990.33 73.77 C 990.03 76.74 989.69 79.70 989.36 82.66 C 987.06 82.60 984.76 82.52 982.48 82.44 C 982.17 79.09 981.86 75.74 981.65 72.38 Z"
       id="path13104" />
    <path
       fill="#ffffff"
       opacity="1.00"
       d=" M 1827.08 75.66 C 1829.95 75.54 1832.84 75.84 1835.58 76.82 C 1835.41 79.85 1835.05 82.87 1834.66 85.87 C 1832.31 85.80 1829.99 85.71 1827.69 85.54 C 1827.52 82.24 1827.28 78.95 1827.08 75.66 Z"
       id="path13106" />
    <path
       fill="#ffffff"
       opacity="1.00"
       d=" M 1006.69 79.51 C 1011.89 79.64 1017.08 79.98 1022.27 80.33 C 1021.97 83.21 1021.70 86.08 1021.50 88.96 C 1016.61 88.55 1011.73 87.99 1006.92 87.06 C 1006.68 84.55 1006.72 82.03 1006.69 79.51 Z"
       id="path13108" />
    <path
       fill="#ffffff"
       opacity="1.00"
       d=" M 1852.06 83.04 C 1857.23 83.17 1862.39 83.48 1867.57 83.72 C 1867.29 86.70 1867.00 89.69 1866.68 92.67 C 1861.83 91.92 1856.97 91.28 1852.13 90.57 C 1852.05 88.06 1852.03 85.55 1852.06 83.04 Z"
       id="path13110" />
    <path
       fill="#ffffff"
       opacity="1.00"
       d=" M 954.21 92.81 C 958.88 92.40 964.19 91.91 968.20 94.84 C 971.30 97.16 970.58 101.51 969.83 104.78 C 968.24 110.67 965.19 116.67 959.82 119.92 C 957.62 121.29 954.96 120.83 952.57 120.48 C 950.61 111.31 953.13 101.95 954.21 92.81 Z"
       id="path13112" />
    <path
       fill="#ffffff"
       opacity="1.00"
       d=" M 152.03 104.09 C 154.25 98.81 159.25 94.51 165.03 93.82 C 168.88 93.37 172.67 94.53 176.27 95.77 C 176.89 101.50 177.51 107.47 176.10 113.12 C 174.26 116.76 170.93 119.36 168.01 122.12 C 165.08 124.52 161.91 127.25 157.97 127.57 C 155.82 127.73 154.73 125.55 153.85 123.98 C 150.88 117.90 149.81 110.58 152.03 104.09 Z"
       id="path13114" />
    <path
       fill="#ffffff"
       opacity="1.00"
       d=" M 1797.58 123.45 C 1795.94 114.21 1798.10 104.80 1799.60 95.67 C 1804.33 95.58 1809.83 94.94 1813.74 98.22 C 1816.49 100.70 1815.64 104.81 1814.95 108.00 C 1813.37 113.65 1810.45 119.34 1805.44 122.65 C 1803.12 124.28 1800.17 123.95 1797.58 123.45 Z"
       id="path13116" />
    <path
       fill="#ffffff"
       opacity="1.00"
       d=" M 1004.18 112.38 C 1004.07 108.81 1004.26 105.25 1004.68 101.71 C 1007.44 101.65 1010.41 101.15 1012.91 102.70 C 1012.25 106.05 1011.75 109.43 1011.50 112.83 C 1009.05 112.66 1006.62 112.49 1004.18 112.38 Z"
       id="path13118" />
    <path
       fill="#ffffff"
       opacity="1.00"
       d=" M 1849.68 105.34 C 1852.31 105.04 1855.54 104.19 1857.78 106.11 C 1857.65 109.56 1856.77 112.94 1856.56 116.39 C 1854.04 116.12 1851.55 115.83 1849.06 115.60 C 1849.27 112.18 1849.49 108.76 1849.68 105.34 Z"
       id="path13120" />
    <path
       fill="#ffffff"
       opacity="1.00"
       d=" M 982.60 114.31 C 985.08 114.68 987.56 115.08 990.05 115.46 C 989.59 117.56 988.95 119.63 988.27 121.67 C 986.38 121.56 984.49 121.47 982.62 121.38 C 982.60 119.02 982.60 116.66 982.60 114.31 Z"
       id="path13122" />
    <path
       fill="#ffffff"
       opacity="1.00"
       d=" M 103.40 117.76 C 106.77 116.85 110.71 117.20 113.38 119.65 C 115.08 120.86 114.74 123.20 115.06 125.02 C 115.30 129.99 115.36 135.06 114.21 139.94 C 113.74 143.89 109.03 144.12 106.03 145.04 C 100.91 145.91 95.03 147.56 90.25 144.76 C 86.74 140.22 84.04 133.05 87.99 127.98 C 92.02 123.25 97.40 119.51 103.40 117.76 Z"
       id="path13124" />
    <path
       fill="#ffffff"
       opacity="1.00"
       d=" M 1827.67 117.50 C 1830.20 117.92 1832.76 118.38 1835.32 118.86 C 1834.62 120.85 1833.95 122.84 1833.30 124.84 C 1831.40 124.76 1829.53 124.68 1827.68 124.61 C 1827.65 122.24 1827.65 119.87 1827.67 117.50 Z"
       id="path13126" />
    <path
       fill="#ffffff"
       opacity="1.00"
       d=" M 1239.87 173.07 C 1248.39 170.02 1256.94 166.36 1266.05 165.61 C 1268.60 165.08 1269.58 168.01 1268.56 169.92 C 1266.77 174.05 1263.55 177.32 1260.69 180.71 C 1259.17 182.63 1256.91 183.66 1254.64 184.35 C 1249.18 186.01 1243.53 186.99 1237.89 187.74 C 1238.54 182.85 1239.23 177.96 1239.87 173.07 Z"
       id="path13128" />
    <path
       fill="#ffffff"
       opacity="1.00"
       d=" M 1986.28 402.31 C 1990.36 402.34 1995.72 401.99 1998.10 406.10 C 1999.89 410.05 1999.76 414.96 1997.89 418.86 C 1995.54 422.79 1990.37 422.45 1986.41 422.68 C 1986.12 415.89 1986.34 409.10 1986.28 402.31 Z"
       id="path13130" />
    <path
       fill="#ffffff"
       opacity="1.00"
       d=" M 585.27 403.40 C 588.93 401.64 594.53 403.03 595.41 407.44 C 597.11 415.84 596.37 424.48 596.55 432.99 C 596.43 439.36 596.88 445.92 595.10 452.10 C 593.84 456.07 588.82 456.52 585.44 455.36 C 581.90 453.78 581.61 449.42 581.33 446.07 C 580.72 435.06 580.73 424.00 581.29 412.99 C 581.64 409.62 581.66 405.05 585.27 403.40 Z"
       id="path13132" />
    <path
       fill="#ffffff"
       opacity="1.00"
       d=" M 952.33 403.55 C 954.77 402.31 957.89 402.39 960.26 403.80 C 962.66 405.31 963.02 408.35 963.37 410.92 C 964.19 419.26 963.76 427.65 963.88 436.02 C 963.75 441.18 963.96 446.46 962.64 451.49 C 961.25 457.44 951.10 457.50 949.57 451.63 C 948.20 446.53 948.41 441.20 948.26 435.97 C 948.32 427.66 947.99 419.33 948.77 411.04 C 949.08 408.30 949.58 404.93 952.33 403.55 Z"
       id="path13134" />
    <path
       fill="#ffffff"
       opacity="1.00"
       d=" M 133.59 404.81 C 135.37 416.38 137.15 427.96 138.87 439.54 C 135.29 439.53 131.70 439.54 128.11 439.54 C 129.98 427.96 131.55 416.35 133.59 404.81 Z"
       id="path13136" />
    <path
       fill="#ffffff"
       opacity="1.00"
       d=" M 302.44 439.53 C 304.33 428.01 305.85 416.43 307.92 404.94 C 309.82 416.45 311.39 428.01 313.27 439.52 C 309.66 439.54 306.05 439.54 302.44 439.53 Z"
       id="path13138" />
    <path
       fill="#ffffff"
       opacity="1.00"
       d=" M 1366.57 404.70 C 1368.27 416.32 1370.12 427.93 1371.82 439.56 C 1368.24 439.53 1364.66 439.53 1361.09 439.55 C 1362.89 427.93 1364.53 416.28 1366.57 404.70 Z"
       id="path13140" />
  </g>
  <g
     id="g13881">
    <path
       d="m 989.98,24.05 c 1.39,-4.74 2.46,-10.5 6.85,-13.43 6.95,1.15 12.3,7.68 14.05,14.34 1.35,4.46 -1.1,8.75 -3.38,12.41 -3.46,5.52 -6.73,11.82 -5.98,18.55 0.53,5.27 4.89,9.3 9.75,10.83 4.26,1.29 8.57,2.4 12.78,3.88 2.02,0.49 4.79,1.75 6.43,-0.23 1.84,-2.19 1.98,-5.68 -0.06,-7.8 -4.23,-4.68 -10.75,-5.93 -15.84,-9.31 -1.04,-2.1 1.06,-3.97 2.59,-5.11 11.54,-8 28.64,-6.88 38.82,2.87 3.66,3.35 2.81,9.26 -0.01,12.85 -1.45,1.88 -4,2 -5.97,3.02 -2.35,2.2 -3.67,5.23 -5.1,8.05 -4.14,8.8 -7.39,17.97 -10.48,27.17 -1.01,3.75 -2.27,7.83 -1.09,11.68 10.01,2.65 20.76,1.41 30.81,4.12 4.37,1.5 8.96,3.22 12.11,6.77 3.07,3.41 3.65,8.55 2.13,12.79 -1.52,3.47 -5.28,5.1 -8.63,6.26 -8.96,2.77 -18.42,3.04 -27.71,3.62 -4.35,0.34 -9.29,-0.18 -12.81,2.91 -9.79,7.76 -18.41,16.88 -26.62,26.26 -2.76,3.01 -4.95,7.06 -4.4,11.25 0.77,2.45 3.69,1.76 5.66,1.81 13.73,-0.96 27.38,-4.13 41.2,-3.09 8.75,0.42 14.19,10.92 11.13,18.68 -1.15,2.83 -4.15,4.69 -7.19,4.48 -11.97,-0.55 -23.88,-3.02 -35.91,-2.22 -2.35,0.22 -5.74,0.7 -6,3.65 -3.25,17.05 -3.18,34.92 -9.58,51.27 -1.88,5.01 -6.17,8.44 -9.95,11.99 -4.33,3.71 -9.62,7.52 -15.64,6.82 -5.31,-0.86 -8.7,-5.46 -12.9,-8.34 -7.72,-6.36 -16.5,-11.62 -22.97,-19.34 2.81,-1.21 5.92,-0.39 8.87,-0.62 8.73,-0.28 17.92,-0.18 25.97,-4.01 4.12,-1.92 4.81,-6.81 6.14,-10.66 2.02,-7.55 4.33,-15.32 3.83,-23.2 0,-3.12 -3.7,-2.88 -5.87,-3.11 -11.59,0.41 -23.4,2.24 -33.94,7.25 -3.33,1.38 -5.41,4.51 -8.48,6.23 -9.46,3.73 -21.25,-4.32 -21.4,-14.44 -0.18,-5.14 5.32,-8.05 9.82,-8.26 7.3,-0.29 14.55,1.56 21.87,0.82 8.14,-0.31 15.56,-4.02 23.52,-5.31 3.35,-0.79 6.91,-1.16 10.02,-2.79 2.04,-1.72 0.08,-4.3 -0.82,-6.1 -1.23,-3.54 -5.79,-0.99 -8.13,-2.69 -0.4,-2.09 -0.75,-4.76 0.64,-6.52 7.48,-3.62 15.55,-6.06 22.81,-10.15 3.69,-2.39 2.93,-9.2 -1.78,-9.69 -12.66,-0.94 -24.92,4.66 -34.67,12.38 -4.44,3.2 -8.76,7.5 -14.52,7.88 -5.19,0.4 -11.24,-3.88 -10.29,-9.55 1.12,-4.78 5.74,-7.55 9.89,-9.49 12.43,-5.57 25.36,-9.96 38.35,-14.05 10.55,-3.17 21.21,-6.24 32.16,-7.72 6.2,-0.9 12.84,0.88 18.71,-1.92 1.67,-0.69 3.7,-2.85 2.17,-4.64 -2.1,-2.62 -5.83,-2.72 -8.9,-2.88 -15.58,-0.26 -31.17,1.48 -46.4,4.65 -18.6,4.97 -37.13,10.46 -54.94,17.79 -4.47,2.18 -10.1,3.86 -12.03,8.95 -4.82,11.36 -5.5,24.07 -10.68,35.3 -2.54,5.75 -11.01,6.55 -15.25,2.29 -3.41,-3.06 -3.91,-7.92 -3.86,-12.23 0.08,-12.69 -1.01,-25.5 1.1,-38.08 0.45,-2.99 2.27,-7.05 5.96,-6.46 3.91,0.84 7.13,3.59 11.11,4.31 4.06,0.82 9.25,2.26 12.39,-1.4 3.28,-3.96 2.82,-9.58 3.04,-14.42 -0.65,-12.01 0.92,-24.19 -1.68,-36.04 -2.32,-11.15 -5.35,-22.56 -3.61,-34.02 0.31,-2.43 1.9,-5.56 4.88,-4.75 4.69,1.28 7.76,5.55 10.79,9.08 2.53,3.64 5.76,7.23 6.45,11.74 0.42,16.97 -1.28,34 0.34,50.94 -0.16,3.49 5.04,3.75 6.64,1.43 1.56,-3.9 1.36,-8.22 1.55,-12.35 0.03,-24.97 -0.35,-49.94 -0.17,-74.91 0.01,-1.97 0.3,-4.46 2.42,-5.31 4.13,-1.14 8.16,1.17 12.13,2.05 2.07,-3.57 3.11,-8.52 7.15,-10.4 4.11,-0.57 6.4,3.81 9.42,5.81 4.6,3.48 11.17,3.77 16.5,2.03 4.54,-2.28 3.41,-8.11 4.69,-12.22 m -34.59,27.06 c -0.92,9.26 -1.92,18.58 -1.48,27.9 0.34,1.48 -0.02,3.66 1.37,4.6 4,0.93 6.67,-3.1 8.41,-6.07 2.45,-4.78 5.58,-9.97 4.36,-15.57 -1.23,-5.76 -6.32,-11.49 -12.66,-10.86 m 26.26,21.27 c 0.21,3.36 0.52,6.71 0.83,10.06 2.28,0.08 4.58,0.16 6.88,0.22 0.33,-2.96 0.67,-5.92 0.97,-8.89 -2.72,-1.3 -5.74,-1.37 -8.68,-1.39 m 25.04,7.13 c 0.03,2.52 -0.01,5.04 0.23,7.55 4.81,0.93 9.69,1.49 14.58,1.9 0.2,-2.88 0.47,-5.75 0.77,-8.63 -5.19,-0.35 -10.38,-0.69 -15.58,-0.82 m -52.48,13.3 c -1.08,9.14 -3.6,18.5 -1.64,27.67 2.39,0.35 5.05,0.81 7.25,-0.56 5.37,-3.25 8.42,-9.25 10.01,-15.14 0.75,-3.27 1.47,-7.62 -1.63,-9.94 -4.01,-2.93 -9.32,-2.44 -13.99,-2.03 m 49.97,19.57 c 2.44,0.11 4.87,0.28 7.32,0.45 0.25,-3.4 0.75,-6.78 1.41,-10.13 -2.5,-1.55 -5.47,-1.05 -8.23,-0.99 -0.42,3.54 -0.61,7.1 -0.5,10.67 m -21.58,1.93 c 0,2.35 0,4.71 0.02,7.07 1.87,0.09 3.76,0.18 5.65,0.29 0.68,-2.04 1.32,-4.11 1.78,-6.21 -2.49,-0.38 -4.97,-0.78 -7.45,-1.15 z"
       id="path13143"
       inkscape:connector-curvature="0"
       style="opacity:1;fill:#77161b" />
    <path
       d="m 1835.43,28.56 c 1.39,-5.41 2.74,-11.63 7.61,-15.05 7.01,2.65 12.82,8.85 13.82,16.43 0.62,5.41 -3.28,9.67 -5.7,14.09 -3.07,5.37 -5.57,11.94 -3.45,18.08 1.85,5.2 7.22,7.92 12.29,9.08 4.42,0.98 8.53,3.15 13.05,3.71 2.8,0.56 4.19,-2.58 4.32,-4.85 0.06,-3.04 -2.56,-5.17 -4.84,-6.71 -4.12,-2.88 -9.23,-3.99 -13.1,-7.24 1.16,-3.85 4.95,-5.74 8.38,-7.2 9.97,-4.18 22.04,-2.88 30.84,3.43 2.09,1.53 4.15,3.41 5.01,5.94 0.56,3.38 -0.15,7.22 -2.59,9.74 -1.9,2.14 -5.56,1.44 -7.02,4.08 -4.78,7.04 -7.57,15.18 -10.67,23.04 -2.48,7.26 -6.24,14.57 -5.13,22.47 10,2.17 20.41,1.59 30.37,3.97 5.62,1.86 12.06,4.33 14.6,10.17 1.49,4.25 1.43,10.09 -2.6,12.95 -3.41,2.48 -7.6,3.51 -11.66,4.32 -9.84,1.9 -19.91,1.55 -29.84,2.56 -3.23,0.35 -5.64,2.78 -8.08,4.65 -8.74,7.48 -16.83,15.7 -24.36,24.37 -2.39,2.58 -3.74,5.97 -4.18,9.43 -0.02,1.84 1.67,3.15 3.46,3.02 11.37,-0.32 22.6,-2.75 33.99,-2.91 4.83,-0.11 10,-0.77 14.5,1.46 5.54,3.08 8.23,10.31 6.56,16.34 -0.91,3.47 -4.45,5.84 -8,5.46 -10.01,-0.73 -19.95,-2.31 -29.99,-2.68 -3.21,-0.03 -6.52,-0.05 -9.56,1.07 -2.05,0.84 -2.09,3.34 -2.51,5.17 -2.15,13.56 -3.16,27.35 -6.66,40.67 -1.54,5.66 -3.48,11.6 -8.04,15.6 -4.97,4.68 -10.25,10 -17.28,11.13 -4.48,0.73 -8.43,-1.9 -11.52,-4.81 -7.82,-6.56 -16.21,-12.41 -23.82,-19.21 -1.45,-1.23 -2.68,-2.73 -3.23,-4.56 11.35,-0.14 23.25,0.93 34,-3.45 4.7,-1.71 5.49,-7.09 6.92,-11.23 2.06,-7.53 4.42,-15.27 3.88,-23.15 -0.02,-2.25 -2.46,-2.64 -4.17,-2.67 -9.45,-0.45 -18.89,1.2 -27.94,3.79 -5.47,1.58 -10.72,4.1 -14.69,8.26 -9.83,6.08 -24.34,-4.01 -22.68,-15.3 1.07,-4.44 6.11,-6.52 10.3,-6.57 7.28,-0.1 14.51,1.71 21.82,0.96 7.98,-0.35 15.27,-3.94 23.09,-5.12 3.47,-0.84 7.29,-1.01 10.36,-3.01 1.41,-2.55 -0.93,-5.28 -2.17,-7.41 -2.19,-0.87 -4.75,0.02 -6.82,-0.99 -1.2,-1.89 -0.61,-4.55 0.17,-6.54 7.48,-3.61 15.57,-5.98 22.9,-9.97 3.84,-2.2 3.34,-9.28 -1.45,-9.89 -8.84,-0.83 -17.67,1.99 -25.44,6 -6.88,3.52 -12.31,9.27 -19.17,12.78 -5.48,2.9 -14.02,0.28 -15,-6.34 -0.52,-5.61 4.87,-9.17 9.33,-11.23 15.6,-6.88 31.89,-12.11 48.3,-16.7 10.76,-2.76 21.74,-5.8 32.98,-5.08 3.71,-0.12 8.16,-0.24 10.86,-3.2 1.57,-1.68 -0.22,-3.88 -1.86,-4.61 -3.42,-1.57 -7.31,-1.38 -10.97,-1.44 -19.64,0.22 -39.34,2.72 -58.1,8.66 -13.31,3.89 -26.61,7.91 -39.44,13.19 -4.5,2.09 -10.08,3.86 -12.05,8.91 -4.47,10.63 -5.62,22.3 -9.87,33 -1.27,4.08 -5.01,7.41 -9.44,7.12 -6.02,0.08 -10.6,-5.74 -10.45,-11.49 -0.16,-12.84 -0.79,-25.75 0.67,-38.54 0.56,-3.22 0.9,-7.27 4.03,-9.12 4.66,-1.39 8.35,2.9 12.71,3.76 3.89,0.74 8.49,2.59 12.06,-0.03 4.35,-3.21 4.02,-9.28 4.36,-14.11 -0.49,-12.69 1.16,-25.55 -1.55,-38.09 -2.3,-10.98 -4.91,-22.23 -3.21,-33.49 0.44,-2.13 1.64,-5.12 4.35,-4.71 5.11,1.19 8.41,5.83 11.56,9.69 2.4,3.59 5.58,7.11 6.12,11.54 0.15,16.86 -1.4,33.77 -0.09,50.61 -0.24,3.6 4.9,4.08 6.67,1.7 1.31,-3.23 1.34,-6.79 1.52,-10.23 0.37,-25.35 0.15,-50.7 0.44,-76.05 0.06,-2.22 -0.01,-5.25 2.45,-6.28 4.13,-1.11 8.14,1.17 12.09,2.13 2.18,-3.53 3.23,-8.27 7.16,-10.35 5.61,-0.35 7.91,6.39 12.92,7.89 4.24,1.25 9.13,1.75 13.32,0.02 3.94,-2.06 3.29,-7.15 4.25,-10.83 m -34.48,25.51 c -0.81,10.86 -3.28,22.05 -0.72,32.81 2.02,-0.13 4.26,-0.31 5.67,-2.01 3.38,-3.62 5.37,-8.28 7.15,-12.85 2.94,-7.86 -3.28,-18.42 -12.1,-17.95 m 26.13,21.59 c 0.2,3.29 0.44,6.58 0.61,9.88 2.3,0.17 4.62,0.26 6.97,0.33 0.39,-3 0.75,-6.02 0.92,-9.05 -2.74,-0.98 -5.63,-1.28 -8.5,-1.16 m 24.98,7.38 c -0.03,2.51 -0.01,5.02 0.07,7.53 4.84,0.71 9.7,1.35 14.55,2.1 0.32,-2.98 0.61,-5.97 0.89,-8.95 -5.18,-0.24 -10.34,-0.55 -15.51,-0.68 m -54.48,40.41 c 2.59,0.5 5.54,0.83 7.86,-0.8 5.01,-3.31 7.93,-9 9.51,-14.65 0.69,-3.19 1.54,-7.3 -1.21,-9.78 -3.91,-3.28 -9.41,-2.64 -14.14,-2.55 -1.5,9.13 -3.66,18.54 -2.02,27.78 m 52.1,-18.11 c -0.19,3.42 -0.41,6.84 -0.62,10.26 2.49,0.23 4.98,0.52 7.5,0.79 0.21,-3.45 1.09,-6.83 1.22,-10.28 -2.24,-1.92 -5.47,-1.07 -8.1,-0.77 m -22.01,12.16 c -0.02,2.37 -0.02,4.74 0.01,7.11 1.85,0.07 3.72,0.15 5.62,0.23 0.65,-2 1.32,-3.99 2.02,-5.98 -2.56,-0.48 -5.12,-0.94 -7.65,-1.36 z"
       id="path13145"
       inkscape:connector-curvature="0"
       style="opacity:1;fill:#77161b" />
    <path
       d="m 126.37,27.37 c 3.61,-2.39 8.51,-5.42 12.67,-2.46 6.28,4.02 12.63,9.18 15.58,16.21 0.77,9.75 -0.98,19.65 0.77,29.33 0.22,1.73 1.98,2.52 3.53,2.59 10.02,-0.72 20.04,0.41 30.06,0.65 10.49,0.94 22.08,0.75 30.92,7.37 7,5.33 8.44,14.72 8.76,22.95 -0.05,3.25 1.05,7.44 -1.97,9.75 -4.18,2.92 -9.79,2.88 -13.83,6.11 -2.53,1.87 -3.97,4.9 -4.26,7.99 -0.65,6.43 -0.15,13.14 -2.44,19.29 -0.82,2.6 -3.47,3.63 -5.81,4.45 -13.7,4.87 -27.8,8.63 -41.19,14.35 -3.34,1.56 -6.9,3.01 -9.55,5.66 -2.75,3.47 -2.92,8.17 -3.19,12.4 -0.42,16.68 2.05,33.43 -0.27,50.06 -3.64,23.63 -6.22,47.42 -9.89,71.05 -0.79,4.48 -1.41,9.01 -2.68,13.39 -1.04,3.26 -2.94,6.83 -6.49,7.82 -2.85,0.36 -4.99,-2.05 -6.11,-4.38 -3.21,-6.45 -3.22,-13.83 -3.69,-20.86 -1.99,-39.26 -1.7,-78.6 -2.2,-117.9 -10.34,-0.19 -21.23,2.01 -29.74,8.15 -4.2,2.77 -5.56,8.67 -10.63,10.23 -3.58,1.49 -8.53,0.89 -10.49,-2.82 -4.35,-7.19 -10.98,-12.84 -14.42,-20.61 -2.86,-6.6 -5.01,-13.97 -3.48,-21.19 1.26,-7.35 5.23,-13.81 7.47,-20.84 2.4,-7.15 -2.57,-14.01 -1.91,-21.19 0.52,-4.29 3.76,-7.5 6.77,-10.3 1.61,-1.36 3.69,-3.26 5.96,-2.24 2.24,2.36 4.16,5.39 7.5,6.29 3.33,1.3 6.92,0.18 9.99,-1.27 8.04,-3.81 15.84,-8.15 23.24,-13.09 3.33,-2.3 6.7,-4.65 9.35,-7.74 2.29,-2.62 2.19,-6.33 2.42,-9.59 0.06,-11.33 -1.89,-22.59 -1.49,-33.92 0.15,-6.82 5.58,-11.96 10.74,-15.69 m 25.66,76.72 c -2.22,6.49 -1.15,13.81 1.82,19.89 0.88,1.57 1.97,3.75 4.12,3.59 3.94,-0.32 7.11,-3.05 10.04,-5.45 2.92,-2.76 6.25,-5.36 8.09,-9 1.41,-5.65 0.79,-11.62 0.17,-17.35 -3.6,-1.24 -7.39,-2.4 -11.24,-1.95 -5.78,0.69 -10.78,4.99 -13,10.27 m -48.63,13.67 c -6,1.75 -11.38,5.49 -15.41,10.22 -3.95,5.07 -1.25,12.24 2.26,16.78 4.78,2.8 10.66,1.15 15.78,0.28 3,-0.92 7.71,-1.15 8.18,-5.1 1.15,-4.88 1.09,-9.95 0.85,-14.92 -0.32,-1.82 0.02,-4.16 -1.68,-5.37 -2.67,-2.45 -6.61,-2.8 -9.98,-1.89 z"
       id="path13147"
       inkscape:connector-curvature="0"
       style="opacity:1;fill:#77161b" />
    <path
       d="m 1243.23,53.97 c 0.71,-6.16 1.6,-12.56 4.8,-18 2.07,1.73 2.86,4.54 4.99,6.2 3.19,0.46 6.69,-0.75 9.69,1.03 8.31,4.14 17.05,7.77 24.36,13.62 5.57,4.32 7.01,11.59 9.44,17.81 7.75,-1.27 15.71,-1.68 23.52,-0.7 7.16,0.75 13.01,6.98 14.01,14 0.55,3.25 -0.68,6.89 -3.52,8.73 -8.35,5.78 -17.12,10.97 -26.1,15.71 -6.06,3.26 -12.64,5.57 -19.46,6.55 -2.89,0.24 -4.48,2.91 -6.19,4.89 -4.13,5.36 -8.12,10.97 -10.65,17.28 -1.4,2.7 -0.26,6.71 2.96,7.35 4.61,0.61 10.7,0.6 13.45,-3.9 2.58,-4.73 3.03,-10.24 4.94,-15.23 0.78,-2.78 3.31,-5.43 6.45,-4.66 4.74,0.85 9.64,2.01 13.64,4.81 3.76,2.6 2.22,7.73 2.57,11.57 -0.25,2.31 0.91,5.72 3.91,4.65 12.26,-2.2 24.42,-6.39 37.06,-5.33 5.84,0.33 10.71,4.03 15.38,7.2 3.65,2.55 4.77,7.23 4.59,11.46 -0.34,7.71 -2,15.27 -3.03,22.9 -2.47,16.12 -4.84,32.33 -9.16,48.09 -2.09,6.99 -4.14,14.33 -8.82,20.08 -9.03,9.52 -20.98,15.85 -33.49,19.5 -4.05,-9.08 -7.04,-18.62 -9.62,-28.2 5.66,-1.5 11.25,-3.24 16.9,-4.76 3.87,-11.57 6.95,-23.42 9.35,-35.38 1.91,-9.03 2.58,-18.24 4.11,-27.32 0.64,-4.79 1.88,-9.57 1.39,-14.44 -8.75,-2.01 -17.83,-2.7 -26.79,-2.11 -5.62,0.11 -9.87,4.34 -13.53,8.1 -2.24,2.13 -2.44,5.89 0.18,7.82 1.66,2.02 4.29,0.97 6.07,-0.29 1.42,3.73 2.45,7.59 3.44,11.46 -11.5,3.36 -23.07,6.52 -34.51,10.09 -0.47,3.83 -1.94,8.64 1.13,11.77 4.67,2.31 10.65,1.08 14.75,-1.96 2.08,-1.22 0.99,-4.95 3.31,-5.64 5.92,1.09 11.54,3.55 16.76,6.51 2.37,1.32 5.07,3.54 4.19,6.63 -1.45,4.77 -6.18,7.66 -10.54,9.48 -8.95,3.25 -18.65,3.53 -27.68,6.45 -1.57,0.43 -3.02,1.6 -2.85,3.37 -0.64,11.79 0.36,23.79 -2.34,35.39 -1.46,6.5 -7.93,11.33 -14.57,11 -0.38,-14.51 -0.07,-29.12 -2.07,-43.52 -7.48,0.29 -14.07,5.25 -21.7,4.74 -5.01,-0.4 -9.19,-3.7 -12.72,-7 -1.93,-2.11 -4.54,-4.48 -4.1,-7.63 2.61,-1.85 5.9,-2.36 8.9,-3.33 10.61,-3.07 21.55,-5.1 31.85,-9.15 -0.74,-3.47 -1.83,-6.85 -2.76,-10.26 -8.35,2.84 -17.12,6 -26.08,4.9 -7.19,-0.84 -12.5,-8.27 -11.15,-15.32 0.43,-2.95 3.84,-1.38 5.77,-1.2 1.26,-1.24 2.53,-2.48 3.83,-3.71 -0.43,-3.61 -1.41,-8.23 -5.44,-9.38 -4.44,-0.6 -9,0.44 -13.02,2.3 -3.08,1.43 -5.93,4.34 -5.45,8 0.46,12.62 3.53,25.25 1.84,37.89 -1.76,5.86 -5.4,12.14 -11.49,14.22 -2.83,1.12 -5.29,-1 -6.18,-3.54 -5.1,-11.73 -7.47,-24.47 -9.02,-37.11 -1.08,-8.4 -1.14,-16.9 -2.33,-25.28 -1.19,-4.91 -2.87,-10.05 -1.21,-15.08 0.85,-3.09 3.13,-6.82 6.83,-6.4 6.51,2.03 10.02,8.6 15.89,11.68 7.37,-0.63 14.47,-3.58 20.97,-7.01 -1.5,-6.34 -2.78,-12.73 -4.31,-19.06 5.28,-0.94 8.48,4.21 11.8,7.36 1.25,1.37 3.92,3.49 5.37,1.2 3.14,-5.16 6.84,-11.58 4.12,-17.69 -3.45,-7 -11.28,-10.14 -15.75,-16.28 -3.02,-5.93 -3.7,-12.71 -4.87,-19.18 6.83,-1.6 13.77,-2.76 20.79,-3.11 5.57,-0.22 11,-4.85 11.26,-10.57 0.12,-8.58 -5.08,-16.4 -4.06,-25.06 m -3.36,119.1 c -0.64,4.89 -1.33,9.78 -1.98,14.67 5.64,-0.75 11.29,-1.73 16.75,-3.39 2.27,-0.69 4.53,-1.72 6.05,-3.64 2.86,-3.39 6.08,-6.66 7.87,-10.79 1.02,-1.91 0.04,-4.84 -2.51,-4.31 -9.11,0.75 -17.66,4.41 -26.18,7.46 z"
       id="path13149"
       inkscape:connector-curvature="0"
       style="opacity:1;fill:#77161b" />
    <path
       d="m 2117.47,55.05 c 0.01,-2.98 2.37,-5.58 5.37,-5.77 8.97,-0.91 18.33,2.94 24.38,9.56 3.75,4.19 2.47,10.11 2.03,15.16 -0.56,2.2 1.26,4.91 3.72,4.11 5.04,-0.97 9.73,-3.51 14.95,-3.76 7.23,-0.81 14.03,2.42 20.38,5.47 4.68,2.6 9.84,5.49 12.3,10.49 1.62,3.84 -2,6.8 -5.15,8.09 -12.83,5.57 -26.98,8.44 -38.71,16.34 -3.67,1.81 -1.55,7.02 -4.92,9.02 -7.01,5.08 -15.03,8.51 -22.81,12.17 -4.09,1.68 -8.01,3.96 -12.43,4.61 -0.1,-4.71 3.48,-8.72 3.16,-13.36 -2.56,-4.75 -7.68,-7.59 -9.75,-12.66 7.99,-3.11 16.76,-3.49 25.04,-5.71 6.16,-1.58 11.3,3 16.92,4.53 3.14,0.38 4.52,-3.2 6.1,-5.29 3.05,-5.91 6.27,-12.35 5.7,-19.19 -0.28,-2.65 -3.7,-2.66 -5.67,-2.27 -8.59,1.89 -16.77,6.33 -22.48,13.08 -7.54,3.47 -15.56,-4.08 -23.04,-0.38 -3.82,1.79 -8.89,3.94 -9.45,8.7 -1,8.69 -1.12,17.62 -3.96,25.99 -0.77,2.43 -2.47,4.75 -5.08,5.29 -2.47,0.28 -4.92,-0.34 -7.33,-0.55 -0.53,5.55 0.27,12.59 -5.03,16.14 -5.16,2.48 -11.15,1.85 -16.69,1.92 -6.91,-0.46 -14.44,-0.29 -20.35,-4.41 -3.73,-1.13 -4.37,4.05 -4.31,6.64 0.89,25.33 3.78,50.6 3.35,75.98 -0.11,6.82 -1.4,13.82 -4.96,19.73 -1.7,2.74 -4.32,5.5 -7.78,5.48 -4.6,-0.87 -7.11,-5.38 -8.97,-9.23 -1.57,-3.82 -3.58,-7.73 -3.27,-11.97 0.6,-28.34 0.1,-56.68 0.03,-85.01 -0.32,-17.98 0.03,-36 -1.52,-53.92 -0.31,-5.66 -3.27,-10.64 -4.46,-16.07 -0.87,-4.56 4.44,-7.01 8.22,-5.9 10.5,2.07 19.32,11.32 21.02,21.88 2.52,14.41 -1.4,28.93 -0.53,43.37 5.51,1.08 11.56,0.64 16.4,-2.46 4.5,-3.04 8.17,-8.18 7.59,-13.86 -0.89,-7.6 -4.65,-14.42 -7.46,-21.42 2.59,-0.18 5.62,-0.26 7.58,1.83 4.32,4.37 7.88,9.81 13.52,12.66 0.76,0.1 2.28,0.31 3.05,0.42 2.86,-6.81 3.09,-14.32 4,-21.55 0.51,-6.19 1.2,-12.38 1.4,-18.59 1.92,-1.27 4.5,-1.79 6.64,-0.65 3.31,2.22 1.17,7.32 4.35,9.6 3.62,1.97 7.78,0.06 11.54,-0.55 3.97,-0.76 8.85,-2.25 9.81,-6.79 1.65,-9.07 -2.9,-17.87 -2.44,-26.94 z"
       id="path13151"
       inkscape:connector-curvature="0"
       style="opacity:1;fill:#77161b" />
    <path
       d="m 649.46,50.6 c 6.48,-1.69 12.51,1.92 17.9,5.04 4.6,2.79 9.41,6.22 11.54,11.35 0.33,6.7 -2.11,13.34 -0.93,20.04 0.38,1.97 1.14,4.11 2.96,5.19 1.89,0.91 4.09,0.31 5.97,-0.36 7.31,-2.84 13.29,-8.2 20.51,-11.22 5.26,-1.76 10.1,2.1 14.18,4.91 4.79,3.81 9.88,8.25 11.47,14.4 0.69,3.92 -3.39,6.17 -6.14,8.02 -10.2,6.07 -21.58,9.74 -32.16,15.03 -5.46,3.06 -11.37,6.51 -14.21,12.36 -2.26,4.62 -0.66,10.03 2.13,14.04 9.34,13.4 18.91,26.8 30.73,38.16 10.48,10.33 22.73,18.88 36.18,24.89 18.37,8.39 37.85,14.14 57.52,18.5 2.42,1.14 0.24,3.93 -0.78,5.36 -6.37,7.42 -15.58,12.1 -25.14,13.79 -14.91,2.97 -30.89,4.33 -45.48,-0.79 -7.51,-2.38 -12.59,-8.73 -17.51,-14.5 -13.98,-17.32 -25.71,-36.29 -38.41,-54.54 -3.45,-4.64 -6.46,-9.78 -10.93,-13.53 -1.39,-1.31 -2.62,0.74 -3.26,1.75 -2.65,4.92 -3.88,10.43 -5.42,15.76 -3.37,11.91 -6.01,24.17 -11.59,35.3 -3.18,5.49 -6.11,11.12 -9.47,16.5 -2.71,4.71 -7.7,7.84 -13.13,8.19 -12.55,0.88 -26.41,-0.35 -36.49,-8.67 -3.99,-3.53 -8.01,-7.51 -9.92,-12.58 -0.59,-3.55 3.78,-4.17 6.32,-4.68 10.09,-1.54 21.13,-3.17 28.64,-10.78 5.44,-5.99 10.18,-12.63 14.34,-19.57 3.26,-5.81 6.39,-12.13 6.32,-18.95 -0.01,-4.16 -2.49,-8.97 -7.14,-9.17 -7.76,-0.12 -15.17,3.37 -22.98,2.84 -7.37,-0.17 -13.53,-5.45 -17.26,-11.44 -4.99,-8.5 -4.89,-18.84 -4.02,-28.35 0.31,-4.1 2.51,-8.9 7.17,-9.22 7.99,-0.46 16.01,0.83 24.02,0.26 8.54,-0.3 17.37,-0.26 25.51,-3.2 4.06,-1.35 5.05,-6.02 5.62,-9.74 1.3,-10.84 -2.19,-21.63 -7,-31.22 -2.7,-7.67 2.54,-17.06 10.34,-19.17 z"
       id="path13153"
       inkscape:connector-curvature="0"
       style="opacity:1;fill:#77161b" />
    <path
       d="m 2039.23,65.22 c 4.48,-4.16 9.73,-7.86 15.73,-9.41 6.77,-0.77 13.55,0.72 20.15,2.13 3.23,0.83 7.47,1.42 8.69,5.11 1.86,5.81 -0.63,12.63 -5.4,16.32 -4.12,3.3 -8.73,5.93 -12.7,9.39 -4.8,3.93 -8.01,9.32 -11.91,14.05 -1.82,2.14 -3.6,4.77 -6.58,5.23 -1.69,-7.15 1.17,-14.23 2.45,-21.18 -3.54,-5.54 -10.77,-7.81 -13.67,-13.89 -1.26,-3.01 1.32,-5.73 3.24,-7.75 z"
       id="path13155"
       inkscape:connector-curvature="0"
       style="opacity:1;fill:#77161b" />
    <path
       d="m 1519.23,60.71 c 3.03,-2.41 7.13,-1.93 10.76,-1.9 10.33,0.69 20.64,1.62 30.98,2.3 5.2,0.43 11.81,1.17 14.3,6.56 2.75,6.92 2.64,14.96 0.34,21.99 -0.77,2.47 -4.2,5.13 -2,7.68 3.18,2.05 7.04,0.07 10.43,-0.4 5.89,-1.37 11.98,-2.49 17.36,-5.42 3.81,-2.09 5.51,-6.36 8.57,-9.27 4.32,-0.29 8.21,2.32 12.18,3.71 6.41,2.79 12.81,5.67 18.95,9.03 3.82,2.09 6.8,6.86 5.09,11.23 -1.84,4.07 -6.47,5.71 -10.49,6.66 -16.75,3.38 -33.86,4.08 -50.82,5.79 -2.45,0.41 -5.62,0.93 -6.6,3.56 -0.87,3.44 1.02,6.82 3.41,9.17 1.84,1.68 1.68,4.38 1.36,6.65 -0.65,4.24 -4.1,7.14 -6.76,10.21 1.89,1.54 4.3,2.1 6.66,2.49 9.92,1.75 20.04,1.95 30.04,3.07 3.95,0.37 8.53,2.7 8.71,7.18 0.26,6.47 -1.53,12.8 -2.44,19.16 -2.78,15.28 -5.71,30.54 -9.46,45.62 -2.06,9.73 -8.75,17.66 -15.75,24.38 -5.61,5.02 -12.28,8.79 -19.13,11.84 -5.04,2.26 -11.77,2.23 -15.47,-2.4 -6.75,-8 -11.57,-17.4 -16.46,-26.6 -1.85,-4.04 -4.58,-7.87 -5,-12.41 8.15,4.45 16.74,8.49 26.01,9.83 3.07,0.4 5.88,-1.7 7.19,-4.37 3.86,-7.37 6.8,-15.17 9.78,-22.93 2.93,-8.19 5.99,-16.42 7.54,-25.01 1.33,-4.91 -3,-8.54 -6.1,-11.59 -3.46,-2.86 -7.61,-6.09 -12.39,-5.3 -3.3,1.63 -4.45,5.56 -6.02,8.64 -3.79,8.78 -7.49,17.92 -14.24,24.93 -12.46,13.4 -26.52,25.64 -42.68,34.38 -6.69,3.17 -13.64,6.91 -21.21,6.96 -1.19,-1.49 0.63,-2.8 1.37,-3.95 11.5,-13.62 22.48,-27.7 32.86,-42.2 9.48,-14.33 18.05,-29.24 26.82,-44.01 1.13,-2.49 3.38,-5.76 1.37,-8.34 -2.23,-0.93 -4.6,0.15 -6.66,0.97 -11.84,5.35 -23.22,11.63 -34.96,17.19 -3.41,1.66 -7.61,2.45 -11.11,0.64 -4.07,-2.07 -7.02,-5.65 -10.39,-8.6 -3.81,-3.65 -8.11,-6.84 -11.47,-10.93 -0.96,-1.44 0.01,-3.03 1.27,-3.84 4.45,-3.04 10,-3.3 15.01,-4.88 13.18,-4.06 26.38,-8.14 39.28,-13.07 3.92,-1.69 8.8,-2.98 10.64,-7.31 2.31,-5.38 3.48,-11.74 1.75,-17.42 -6.55,-10.55 -16.01,-19.04 -22.42,-29.67 z"
       id="path13157"
       inkscape:connector-curvature="0"
       style="opacity:1;fill:#77161b" />
    <path
       d="m 366.1,75.12 c 4.16,-1.61 9.17,-2.89 13.33,-0.6 5.96,3.12 10.6,8.34 13.91,14.12 2.45,4 2.21,8.85 2.42,13.36 0.36,26.34 -1.89,52.63 -2.29,78.96 0.16,3 -0.45,6.47 1.6,8.97 2.03,2.51 5.66,1.9 8.45,1.39 6.53,-1.72 12.88,-4.13 19.13,-6.7 4.28,-1.75 8.35,-5.07 9.18,-9.86 1.37,-7.73 -1.9,-16 1.45,-23.44 2.13,-4.81 9.27,-8.29 13.59,-4.19 4.19,3.82 8.15,7.94 11.6,12.45 3.24,4.05 3.23,9.51 3.57,14.43 0.04,8.69 -0.9,17.36 -2.01,25.98 -1.39,9.94 -2.97,19.97 -6.62,29.38 -2.9,7.66 -8.13,14.31 -14.37,19.54 -3.59,3.1 -11.25,2.72 -12.2,-2.76 -2.24,-9.93 -0.57,-20.24 -2.18,-30.25 -0.39,-2.1 -1.12,-4.82 -3.59,-5.22 -5.72,-0.54 -11.16,1.98 -16.32,4.1 -6.47,3.12 -13.36,6.31 -17.81,12.18 -1.52,1.96 -3.38,3.71 -5.85,4.35 -4.22,-1.21 -8.62,-2.5 -13.04,-1.73 -16.4,2.68 -30.16,12.55 -44.72,19.82 -4.79,2.18 -10.63,4.88 -15.74,2.14 -5.36,-3.15 -7.21,-9.68 -8.21,-15.44 -1.31,-8.3 -0.74,-16.79 0.5,-25.07 1.52,-10.44 5.65,-20.4 6.17,-31.01 0.46,-5.95 -0.24,-11.95 0.55,-17.87 0.41,-2.25 1.19,-4.96 3.44,-5.99 3.31,-0.95 5.55,2.16 7.36,4.38 3.37,4.71 6.27,9.77 9.09,14.82 2.89,9.65 -0.95,19.8 0.69,29.59 0.12,1.35 1.32,2.61 2.77,2.37 8.42,0.06 16.87,-1.18 24.99,-3.39 2.95,-0.97 6.79,-1.9 7.62,-5.39 1.9,-6.32 2.04,-12.98 2.33,-19.52 1.09,-31.76 -3.24,-63.33 -5.02,-94.97 -0.64,-4.13 2.62,-7.56 6.23,-8.93 z"
       id="path13159"
       inkscape:connector-curvature="0"
       style="opacity:1;fill:#77161b" />
    <path
       d="m 2143.46,134.56 c 5.1,-1.67 9.98,1.38 14.33,3.69 2.09,1.23 4.72,2.95 4.67,5.7 -0.16,5.04 -2.99,9.62 -6.89,12.67 -3.89,3.57 -9.66,7.36 -8.62,13.45 0.85,4.65 6.33,5.13 9.85,6.93 0.72,6.84 -1.64,13.48 -2.62,20.18 -2.29,11.08 -3.45,22.74 -0.12,33.72 1.25,4.34 5.97,5.92 10.06,6.03 10.74,0.82 23.25,-0.33 30.81,-8.97 6.44,-8.03 11.31,-17.35 14.15,-27.24 4.17,2.75 5.88,7.81 8.06,12.08 3.36,8.2 6.98,17.26 4.73,26.21 -0.83,3.97 -1.33,8.5 -4.55,11.35 -3.07,2.57 -6.96,3.81 -10.69,5.04 -13.75,4.25 -28.21,7.14 -42.65,5.67 -7.78,-0.95 -15.64,-3.31 -21.88,-8.21 -4.4,-3.74 -6.34,-9.49 -7.36,-14.99 -2.09,-12.28 -0.59,-24.78 1.12,-37 0.69,-5.41 2.26,-10.84 1.48,-16.34 -2.55,0.29 -4.09,2.43 -5.63,4.19 -5.18,6.2 -9.58,12.98 -14.49,19.38 -7.73,10.22 -16.51,19.64 -26.12,28.1 -7.59,6.44 -17.45,13.15 -27.88,10.19 -0.5,-1.21 0.77,-1.95 1.41,-2.81 12.62,-14.07 25.13,-28.26 37.03,-42.97 3.05,-4.11 7.4,-8.12 6.69,-13.76 -6.52,-1.26 -13.06,-2.39 -19.55,-3.7 -3.66,-1.17 -7.41,-3.17 -9.52,-6.47 -1.62,-2.57 0.66,-5.21 2.82,-6.5 5.68,-3.49 12.19,-5.26 18.34,-7.75 7.37,-2.66 14.17,-6.64 21.42,-9.6 4.41,-1.87 9.02,-3.99 11.97,-7.94 2.87,-3.69 5.11,-8.37 9.63,-10.33 z"
       id="path13161"
       inkscape:connector-curvature="0"
       style="opacity:1;fill:#77161b" />
  </g>
  <g
     id="g13869">
    <path
       d="m 408.36,403.91 c 1.76,-8.8 9.84,-15.32 18.56,-16.44 7.98,-0.96 17.15,-0.63 23.37,5.18 6.09,5.86 7.26,14.98 6.72,23.03 -6,0.01 -11.99,-0.03 -17.99,0.02 -0.35,-3.65 -0.05,-7.56 -1.83,-10.9 -2.18,-3.92 -8.92,-3.08 -10.14,1.23 -1.61,5.14 -1.28,10.61 -1.46,15.93 0.03,8.71 -0.24,17.44 0.43,26.14 0.36,2.91 0.63,6.58 3.51,8.16 2.86,1.21 6.87,0.45 8.27,-2.59 2.1,-4.39 1.76,-9.42 1.66,-14.15 -2.46,0.01 -4.91,0.02 -7.37,0.05 -0.36,-4.76 -0.2,-9.54 -0.14,-14.32 8.62,-0.03 17.25,0 25.88,-0.02 0,14.88 0,29.75 0,44.62 -4.36,0 -8.72,0 -13.09,0 -0.31,-1.57 -0.65,-3.13 -1,-4.68 -7.4,9.46 -22.97,8.09 -30.4,-0.61 -5.94,-6.68 -6.42,-16.15 -6.84,-24.63 -0.31,-12.01 -0.78,-24.22 1.86,-36.02 z"
       id="path13163"
       inkscape:connector-curvature="0"
       style="opacity:1;fill:#77161b" />
    <path
       d="m 504.88,393.88 c 5.95,-6.16 15.07,-7.34 23.21,-6.67 7.28,0.37 14.75,3.8 18.51,10.27 3.69,5.94 4.28,13.11 4.48,19.93 -6.2,0.01 -12.39,0 -18.58,0 -0.22,-3.96 -0.21,-8.18 -2.16,-11.75 -2.64,-4.55 -10.69,-3.76 -12.11,1.44 -1.85,7.12 -1.37,14.57 -1.56,21.86 0.23,7.59 -0.29,15.35 1.56,22.77 1.2,5.4 9.49,6.38 12.18,1.74 2.24,-4.73 1.75,-10.14 1.87,-15.22 6.24,0 12.48,0.01 18.73,-0.01 0.34,8.61 -0.15,18.1 -5.57,25.23 -4.75,6.19 -12.98,8.28 -20.44,8.19 -7.59,0.23 -15.79,-1.85 -20.98,-7.72 -4.5,-4.83 -5.59,-11.67 -6.16,-17.98 -0.71,-11.02 -0.7,-22.07 -0.03,-33.08 0.59,-6.75 1.81,-14.18 7.05,-19 z"
       id="path13165"
       inkscape:connector-curvature="0"
       style="opacity:1;fill:#77161b" />
    <path
       d="m 580.51,387.82 c 9.62,-1.63 21.13,-1.22 28.25,6.4 6.87,7.04 6.74,17.6 7.11,26.77 -0.09,11.08 0.71,22.33 -1.64,33.24 -1.73,8.35 -8.83,15.01 -17.15,16.61 -9.69,1.88 -21.23,1.08 -28.45,-6.43 -6.04,-6.18 -6.45,-15.37 -6.87,-23.48 -0.26,-11.97 -0.78,-24.12 1.42,-35.95 1.48,-8.66 8.78,-15.56 17.33,-17.16 m 4.76,15.58 c -3.61,1.65 -3.63,6.22 -3.98,9.59 -0.56,11.01 -0.57,22.07 0.04,33.08 0.28,3.35 0.57,7.71 4.11,9.29 3.38,1.16 8.4,0.71 9.66,-3.26 1.78,-6.18 1.33,-12.74 1.45,-19.11 -0.18,-8.51 0.56,-17.15 -1.14,-25.55 -0.88,-4.41 -6.48,-5.8 -10.14,-4.04 z"
       id="path13167"
       inkscape:connector-curvature="0"
       style="opacity:1;fill:#77161b" />
    <path
       d="m 789.66,393.61 c 6.12,-6.02 15.24,-7.16 23.41,-6.33 6.4,0.52 12.83,3.77 16.06,9.5 3.27,5.69 3.76,12.46 3.47,18.89 -6.03,0.02 -12.06,0 -18.08,0.01 -0.2,-3.54 0,-7.29 -1.6,-10.56 -1.75,-3.84 -7.95,-3.72 -9.85,-0.08 -1.45,2.83 -1.45,6.13 -1.71,9.23 -0.32,9.24 -0.21,18.5 -0.11,27.74 0.22,3.96 0.07,8.11 1.62,11.84 1.88,4.3 8.92,3.75 10.63,-0.45 1.89,-4.34 1.78,-9.27 1.4,-13.9 -2.46,0.03 -4.92,0.04 -7.36,0.05 -0.01,-4.78 -0.03,-9.56 0.02,-14.33 8.6,0.01 17.2,0.08 25.8,-0.05 0.16,14.9 0.05,29.8 0.06,44.7 -4.38,-0.03 -8.76,-0.02 -13.14,-0.03 -0.3,-1.58 -0.6,-3.14 -0.88,-4.71 -7.08,8.96 -21.49,8.29 -29.31,0.69 -5.1,-4.79 -6.93,-11.95 -7.54,-18.69 -0.96,-11.98 -1.09,-24.04 0.08,-36 0.73,-6.29 2.15,-13.06 7.03,-17.52 z"
       id="path13169"
       inkscape:connector-curvature="0"
       style="opacity:1;fill:#77161b" />
    <path
       d="m 948.49,387.68 c 9.38,-1.41 20.44,-0.93 27.45,6.35 6.77,6.79 6.84,17.05 7.29,25.98 -0.03,11.3 0.71,22.78 -1.61,33.92 -1.54,7.9 -7.86,14.48 -15.62,16.5 -6.79,1.75 -14.15,1.76 -20.85,-0.34 -7.33,-2.22 -13.17,-8.6 -14.6,-16.14 -2.02,-10.04 -1.7,-20.38 -1.69,-30.57 0.43,-8.02 0.13,-16.42 3.48,-23.91 2.98,-6.34 9.37,-10.54 16.15,-11.79 m 3.84,15.87 c -2.75,1.38 -3.25,4.75 -3.56,7.49 -0.78,8.29 -0.45,16.62 -0.51,24.93 0.15,5.23 -0.06,10.56 1.31,15.66 1.53,5.87 11.68,5.81 13.07,-0.14 1.32,-5.03 1.11,-10.31 1.24,-15.47 -0.12,-8.37 0.31,-16.76 -0.51,-25.1 -0.35,-2.57 -0.71,-5.61 -3.11,-7.12 -2.37,-1.41 -5.49,-1.49 -7.93,-0.25 z"
       id="path13171"
       inkscape:connector-curvature="0"
       style="opacity:1;fill:#77161b" />
    <path
       d="m 1086.74,390.72 c 5.66,-3.82 12.8,-4.01 19.37,-3.37 5.87,0.63 11.79,3.39 15.13,8.42 3.36,5.05 4.27,11.41 3.69,17.35 -5.67,0.03 -11.33,0.01 -16.98,0.01 -0.23,-3.36 -0.11,-7.03 -2.14,-9.9 -2.17,-3.35 -8.12,-2.74 -9.51,1.04 -1.77,3.45 -0.28,7.54 2.43,10.01 7.08,6.72 16.96,10.02 23.12,17.79 4.62,6.93 4.64,15.97 2.76,23.82 -1.88,7.82 -8.68,13.95 -16.59,15.2 -8.62,1.34 -18.75,0.78 -25.28,-5.72 -5.93,-6.05 -6.52,-15.12 -6.11,-23.12 5.88,-0.17 11.77,-0.03 17.66,-0.08 0.12,3.94 -0.34,8.24 1.73,11.8 2.48,3.78 9.12,3.07 10.75,-1.18 2.32,-4.82 -0.76,-10.06 -4.7,-12.88 -6.32,-4.63 -13.29,-8.45 -18.87,-14.01 -4.58,-5.01 -5.87,-12.22 -5.39,-18.8 0.35,-6.42 3.4,-12.87 8.93,-16.38 z"
       id="path13173"
       inkscape:connector-curvature="0"
       style="opacity:1;fill:#77161b" />
    <path
       d="m 1485,402.06 c 1.91,-7.82 9.04,-13.7 16.96,-14.65 7.75,-0.86 16.54,-0.4 22.68,5.03 5.83,5.05 7.3,13.35 6.67,20.71 -5.67,-0.03 -11.32,-0.02 -16.98,-0.01 -0.24,-3.85 -0.16,-8.45 -3.36,-11.18 -2.82,-1.87 -7.28,-0.81 -8.41,2.55 -1.76,3.58 0.05,7.61 2.83,10.06 7.16,6.62 17.07,9.95 23.08,17.88 4.55,7.37 4.5,16.84 2.05,24.92 -2.31,7.51 -9.32,12.84 -17,13.89 -8.26,1.03 -17.85,0.48 -24.15,-5.65 -6.16,-6.01 -6.89,-15.33 -6.28,-23.43 5.85,-0.01 11.71,-0.02 17.58,0 0.04,3.85 -0.33,7.99 1.54,11.51 2.27,4.05 9.21,3.47 10.91,-0.85 2.16,-4.62 -0.45,-9.84 -4.29,-12.63 -6.66,-4.99 -14.23,-8.9 -19.93,-15.08 -5.09,-6.4 -5.69,-15.35 -3.9,-23.07 z"
       id="path13175"
       inkscape:connector-curvature="0"
       style="opacity:1;fill:#77161b" />
    <path
       d="m 2030.19,401.95 c 1.89,-7.7 8.91,-13.49 16.68,-14.51 7.95,-0.93 17.05,-0.44 23.23,5.3 5.58,5.02 6.77,12.99 6.51,20.13 -5.71,0.54 -11.44,0.14 -17.15,0.27 -0.2,-4.29 -0.25,-10.89 -5.5,-11.98 -5.45,-1.27 -8.52,5.69 -6.13,9.91 3.03,5.33 8.87,8 13.75,11.34 5.9,3.9 12.71,8.13 14.51,15.5 2.11,8.24 1.64,17.77 -3.25,24.98 -4.37,6.35 -12.41,8.97 -19.83,8.77 -7.24,0.18 -15.25,-1.69 -19.94,-7.61 -4.93,-6.09 -5.27,-14.38 -4.9,-21.86 5.87,-0.04 11.74,-0.01 17.62,-0.02 0.05,3.83 -0.27,7.94 1.53,11.47 2.35,4.31 9.77,3.43 11.13,-1.31 1.93,-4.61 -0.96,-9.51 -4.63,-12.24 -6.66,-4.94 -14.2,-8.87 -19.86,-15.03 -5.02,-6.44 -5.68,-15.41 -3.77,-23.11 z"
       id="path13177"
       inkscape:connector-curvature="0"
       style="opacity:1;fill:#77161b" />
    <path
       d="m 46.6,388.41 c 6.65,-0.11 13.3,-0.03 19.94,-0.05 4.98,16.25 10.35,32.37 15.07,48.7 0.38,-5.06 -0.37,-10.11 -0.55,-15.16 -0.84,-11.16 -0.68,-22.36 -0.68,-33.54 5.68,0.03 11.37,-0.08 17.05,0.07 -0.11,27.14 0.01,54.29 -0.06,81.43 -6.67,-0.04 -13.34,0.02 -20.01,-0.03 -5.12,-16.91 -10.28,-33.8 -15.52,-50.67 1.7,16.84 2.24,33.77 2.02,50.7 -5.74,-0.02 -11.48,-0.02 -17.22,0 -0.04,-27.15 0.04,-54.3 -0.04,-81.45 z"
       id="path13179"
       inkscape:connector-curvature="0"
       style="opacity:1;fill:#77161b" />
    <path
       d="m 122.28,388.33 c 7.54,0.05 15.07,0.03 22.6,0.01 5.9,27.16 11.72,54.35 17.5,81.53 -6.35,-0.05 -12.7,-0.01 -19.04,-0.02 -0.83,-5.18 -1.59,-10.37 -2.41,-15.55 -4.91,-0.03 -9.83,0 -14.75,-0.03 -0.8,5.17 -1.62,10.34 -2.3,15.53 -6.41,0.12 -12.83,-0.03 -19.24,0.1 5.72,-27.22 11.74,-54.39 17.64,-81.57 m 11.31,16.48 c -2.04,11.54 -3.61,23.15 -5.48,34.73 3.59,0 7.18,-0.01 10.76,0 -1.72,-11.58 -3.5,-23.16 -5.28,-34.73 z"
       id="path13181"
       inkscape:connector-curvature="0"
       style="opacity:1;fill:#77161b" />
    <path
       d="m 169.9,388.3 c 6.6,0.12 13.2,0.04 19.8,0.05 5.23,16.52 10.24,33.11 15.63,49.59 -1.5,-16.47 -1.99,-32.99 -1.85,-49.52 5.69,-0.13 11.38,-0.04 17.07,-0.06 -0.02,27.16 -0.03,54.32 0.01,81.47 -6.69,0.02 -13.37,0.06 -20.06,-0.02 -4.94,-16.74 -10.35,-33.33 -15.14,-50.11 -0.11,4.76 0.59,9.49 0.87,14.24 0.75,11.94 0.95,23.91 0.88,35.88 -5.76,0.07 -11.52,0 -17.28,0.04 0.01,-27.18 -0.13,-54.37 0.07,-81.56 z"
       id="path13183"
       inkscape:connector-curvature="0"
       style="opacity:1;fill:#77161b" />
    <path
       d="m 233.5,388.43 c 14.78,-0.17 29.56,-0.01 44.34,-0.09 0.03,5.35 -0.01,10.69 0.03,16.04 -8.4,0.09 -16.8,-0.09 -25.19,0.1 0.08,4.9 0.03,9.8 0.05,14.7 7.78,0.01 15.55,0.01 23.33,0 -0.04,5.51 0.13,11.02 -0.12,16.52 -7.74,-0.14 -15.48,-0.04 -23.22,-0.06 0.01,11.4 0,22.8 0.01,34.21 -6.39,0 -12.78,-0.01 -19.18,0 -0.03,-27.14 0.07,-54.28 -0.05,-81.42 z"
       id="path13185"
       inkscape:connector-curvature="0"
       style="opacity:1;fill:#77161b" />
    <path
       d="m 296.59,388.36 c 7.58,0.03 15.16,-0.07 22.74,0.05 5.71,27.16 11.61,54.29 17.43,81.43 -6.4,-0.03 -12.8,0.12 -19.19,-0.09 -0.62,-5.15 -1.55,-10.25 -2.2,-15.4 -4.96,-0.13 -9.92,-0.05 -14.88,-0.06 -0.72,5.2 -1.59,10.37 -2.35,15.56 -6.4,-0.01 -12.81,0.02 -19.21,-0.02 5.84,-27.17 11.78,-54.32 17.66,-81.47 m 5.85,51.17 c 3.61,0.01 7.22,0.01 10.83,-0.01 -1.88,-11.51 -3.45,-23.07 -5.35,-34.58 -2.07,11.49 -3.59,23.07 -5.48,34.59 z"
       id="path13187"
       inkscape:connector-curvature="0"
       style="opacity:1;fill:#77161b" />
    <path
       d="m 344.16,388.35 c 6.59,-0.01 13.18,0.07 19.77,-0.05 5.41,16.23 10.05,32.73 15.58,48.92 -1.12,-16.27 -2.06,-32.58 -1.57,-48.89 5.64,0.05 11.28,0.04 16.92,0.01 0.04,27.17 0.01,54.34 0.02,81.52 -6.66,-0.02 -13.32,-0.01 -19.98,-0.01 -5.21,-16.75 -10.11,-33.59 -15.51,-50.28 1.63,16.71 2.25,33.5 1.99,50.29 -5.74,-0.02 -11.49,-0.01 -17.23,-0.01 0.01,-27.17 -0.01,-54.33 0.01,-81.5 z"
       id="path13189"
       inkscape:connector-curvature="0"
       style="opacity:1;fill:#77161b" />
    <path
       d="m 627.34,388.35 c 6.37,0.04 12.74,-0.05 19.12,0.06 -0.06,21.67 -0.06,43.35 0,65.02 7.54,-0.08 15.09,0.04 22.64,-0.07 0.22,5.49 0.06,10.98 0.11,16.48 -13.96,0.02 -27.92,0.01 -41.88,0 0.02,-27.16 0,-54.32 0.01,-81.49 z"
       id="path13191"
       inkscape:connector-curvature="0"
       style="opacity:1;fill:#77161b" />
    <path
       d="m 677.6,388.42 c 6.37,-0.14 12.75,-0.03 19.13,-0.07 0.01,21.69 0,43.37 0,65.06 7.6,0.01 15.19,-0.04 22.78,0.03 -0.04,5.47 0,10.95 -0.04,16.43 -13.94,-0.04 -27.88,-0.02 -41.83,-0.01 -0.04,-27.15 0.06,-54.29 -0.04,-81.44 z"
       id="path13193"
       inkscape:connector-curvature="0"
       style="opacity:1;fill:#77161b" />
    <path
       d="m 728.08,388.28 c 14.67,0.14 29.34,0.1 44,0.02 0.21,5.37 0.06,10.74 0.11,16.1 -8.4,-0.02 -16.79,0.03 -25.18,-0.02 -0.22,4.93 -0.09,9.86 -0.11,14.8 7.78,0.01 15.56,0 23.35,0.01 0.01,5.45 -0.06,10.9 0.06,16.35 -7.8,0.22 -15.61,0.03 -23.41,0.1 -0.01,5.92 -0.01,11.84 0,17.76 8.45,0.08 16.9,-0.13 25.34,0.11 -0.12,5.44 -0.04,10.89 -0.06,16.34 -14.75,0 -29.49,0 -44.24,0 0.09,-27.19 -0.19,-54.38 0.14,-81.57 z"
       id="path13195"
       inkscape:connector-curvature="0"
       style="opacity:1;fill:#77161b" />
    <path
       d="m 846,388.32 c 14.68,0.06 29.37,0.07 44.06,0 0.17,5.36 0.05,10.72 0.09,16.09 -8.37,-0.06 -16.74,0.08 -25.1,-0.08 -0.36,4.94 -0.12,9.9 -0.17,14.85 7.77,0 15.54,0.01 23.31,0 0.07,5.44 -0.05,10.89 0.1,16.33 -7.81,0.29 -15.61,0.04 -23.42,0.13 0,5.92 0,11.84 0,17.76 8.39,-0.02 16.78,0.06 25.18,-0.04 0.2,5.49 0.06,10.99 0.09,16.49 -14.74,0 -29.48,0 -44.22,0 0.03,-27.17 -0.13,-54.35 0.08,-81.53 z"
       id="path13197"
       inkscape:connector-curvature="0"
       style="opacity:1;fill:#77161b" />
    <path
       d="m 995.14,388.33 c 14.77,0.1 29.55,-0.05 44.33,0.07 -0.07,5.33 -0.03,10.67 -0.03,16 -8.39,0 -16.78,0.01 -25.16,-0.01 -0.02,4.92 -0.01,9.83 -0.01,14.75 7.77,0.1 15.55,0.01 23.33,0.05 -0.03,5.48 -0.02,10.96 -0.01,16.45 -7.79,0.02 -15.57,-0.06 -23.35,0.04 0.07,11.39 0.01,22.78 0.03,34.17 -6.39,0 -12.78,-0.01 -19.16,0.01 0.02,-27.18 -0.04,-54.36 0.03,-81.53 z"
       id="path13199"
       inkscape:connector-curvature="0"
       style="opacity:1;fill:#77161b" />
    <path
       d="m 1136.09,388.33 c 6.43,0.09 12.85,-0.05 19.28,0.08 -0.07,17.53 -0.02,35.06 -0.02,52.58 0.14,4.07 -0.04,8.27 1.25,12.19 1.59,4.43 9.24,4.35 10.6,-0.21 1.43,-4.85 1.02,-9.99 1.25,-14.98 0.06,-16.55 0.01,-33.09 0.02,-49.63 6.29,0.03 12.59,-0.09 18.89,0.08 -0.11,16.5 -0.02,33.01 -0.04,49.52 -0.11,8.81 0.6,18.71 -5.18,26.07 -4.7,6.12 -12.92,7.69 -20.21,7.63 -7.03,0.17 -14.95,-1.12 -19.7,-6.82 -5.66,-6.52 -5.75,-15.67 -6.04,-23.82 -0.26,-17.56 -0.11,-35.13 -0.1,-52.69 z"
       id="path13201"
       inkscape:connector-curvature="0"
       style="opacity:1;fill:#77161b" />
    <path
       d="m 1200.23,388.35 c 6.56,0.08 13.12,-0.11 19.69,0.06 5.67,16.15 10.16,32.76 15.68,48.98 -1.07,-16.32 -2.16,-32.68 -1.57,-49.05 5.61,0.02 11.24,0.06 16.86,-0.03 0.13,27.18 0.03,54.37 0.05,81.55 -6.64,-0.02 -13.29,-0.02 -19.93,0.01 -5.29,-16.97 -10.33,-34.01 -15.67,-50.96 1.87,16.91 2.3,33.94 2.13,50.95 -5.76,-0.02 -11.5,-0.01 -17.25,-0.01 0.02,-27.17 0,-54.33 0.01,-81.5 z"
       id="path13203"
       inkscape:connector-curvature="0"
       style="opacity:1;fill:#77161b" />
    <path
       d="m 1285.89,388.35 c 6.79,0.03 13.59,-0.03 20.39,0.03 2.55,8.43 5.02,16.88 7.75,25.25 2.74,-8.36 5.22,-16.81 7.77,-25.23 6.93,-0.07 13.87,-0.06 20.81,-0.01 -6.16,15.57 -12.51,31.07 -18.46,46.72 -0.65,11.53 -0.1,23.17 -0.27,34.74 -6.5,-0.01 -12.99,0.02 -19.48,-0.02 -0.15,-11.6 0.36,-23.27 -0.25,-34.84 -5.88,-15.62 -12.5,-30.97 -18.26,-46.64 z"
       id="path13205"
       inkscape:connector-curvature="0"
       style="opacity:1;fill:#77161b" />
    <path
       d="m 1355.24,388.32 c 7.54,0.07 15.08,0.03 22.62,0.03 5.87,27.16 11.64,54.34 17.52,81.49 -6.37,0.01 -12.73,0.01 -19.09,0.01 -0.84,-5.19 -1.56,-10.4 -2.43,-15.58 -4.92,0.03 -9.82,0.02 -14.72,0.01 -0.84,5.19 -1.58,10.39 -2.4,15.58 -6.4,-0.01 -12.79,-0.05 -19.18,0.03 5.79,-27.21 11.75,-54.39 17.68,-81.57 m 11.33,16.38 c -2.04,11.58 -3.68,23.23 -5.48,34.85 3.57,-0.02 7.15,-0.02 10.73,0.01 -1.7,-11.63 -3.55,-23.24 -5.25,-34.86 z"
       id="path13207"
       inkscape:connector-curvature="0"
       style="opacity:1;fill:#77161b" />
    <path
       d="m 1393.59,388.44 c 16.75,-0.2 33.49,-0.01 50.24,-0.09 -0.01,5.36 0.07,10.73 -0.05,16.1 -5.3,-0.1 -10.59,-0.04 -15.88,-0.05 -0.01,21.82 0,43.64 0,65.46 -6.36,-0.02 -12.72,-0.01 -19.07,-0.01 -0.01,-21.82 0.02,-43.64 -0.01,-65.46 -5.07,0.02 -10.12,0.01 -15.18,0.01 -0.02,-5.32 0.05,-10.64 -0.05,-15.96 z"
       id="path13209"
       inkscape:connector-curvature="0"
       style="opacity:1;fill:#77161b" />
    <path
       d="m 1542.41,388.36 c 14.74,0 29.48,0 44.22,0 -0.03,5.35 0.04,10.71 -0.05,16.07 -8.4,-0.07 -16.8,-0.01 -25.19,-0.03 0.05,4.95 -0.15,9.91 0.14,14.86 7.71,-0.16 15.43,-0.04 23.16,-0.07 -0.02,5.48 -0.01,10.96 -0.01,16.45 -7.75,-0.02 -15.5,0.03 -23.25,-0.03 -0.08,5.94 -0.05,11.87 -0.01,17.81 8.4,-0.04 16.8,0 25.21,-0.02 0,5.48 -0.02,10.96 0.01,16.44 -14.75,0.01 -29.5,0.03 -44.25,-0.01 0.05,-27.16 0.02,-54.31 0.02,-81.47 z"
       id="path13211"
       inkscape:connector-curvature="0"
       style="opacity:1;fill:#77161b" />
    <path
       d="m 1598.35,388.36 c 6.65,0.02 13.3,-0.07 19.96,0.05 5.08,16.37 10.11,32.76 15.41,49.06 -1.24,-16.35 -1.9,-32.73 -1.58,-49.12 5.61,0 11.22,0.05 16.84,-0.04 0.26,27.18 0.05,54.36 0.1,81.54 -6.68,-0.02 -13.36,0.05 -20.04,-0.04 -5.19,-16.97 -10.17,-34.01 -15.68,-50.87 2.14,16.88 2.33,33.94 2.21,50.93 -5.75,-0.05 -11.5,0.01 -17.24,-0.05 0.05,-27.15 0.01,-54.31 0.02,-81.46 z"
       id="path13213"
       inkscape:connector-curvature="0"
       style="opacity:1;fill:#77161b" />
    <path
       d="m 1690.68,388.44 c 6.4,-0.19 12.8,0 19.21,-0.12 0.43,15.2 0.11,30.43 0.21,45.64 0.1,6.32 -0.55,12.81 1.09,18.99 1.56,5 10.19,4.5 10.96,-0.8 1.59,-8.94 0.83,-18.1 1.03,-27.14 0,-12.22 -0.03,-24.45 0.01,-36.67 6.22,0.02 12.45,0.04 18.68,-0.01 0.16,15.89 -0.03,31.79 0.06,47.68 -0.02,8.98 0.88,18.85 -4.19,26.78 -4.15,6.57 -12.38,8.78 -19.72,8.85 -7.41,0.29 -15.92,-0.68 -21.03,-6.69 -5.52,-6.26 -5.81,-15.09 -6.14,-22.99 -0.29,-17.84 0.01,-35.68 -0.17,-53.52 z"
       id="path13215"
       inkscape:connector-curvature="0"
       style="opacity:1;fill:#77161b" />
    <path
       d="m 1755.34,388.36 c 6.65,0.03 13.31,-0.07 19.97,0.05 5.05,16.26 10,32.57 15.33,48.74 -1.11,-16.25 -1.87,-32.52 -1.49,-48.81 5.6,0.02 11.21,0.05 16.83,-0.03 0.24,27.18 0.05,54.36 0.09,81.54 -6.68,-0.03 -13.36,0.05 -20.04,-0.04 -5.14,-16.97 -10.26,-33.95 -15.6,-50.86 1.95,16.89 2.3,33.92 2.15,50.91 -5.76,-0.03 -11.51,0.01 -17.25,-0.03 0.03,-27.16 0,-54.31 0.01,-81.47 z"
       id="path13217"
       inkscape:connector-curvature="0"
       style="opacity:1;fill:#77161b" />
    <path
       d="m 1819.11,388.34 c 6.32,0.01 12.64,0.06 18.97,-0.03 0.2,27.18 0.04,54.36 0.08,81.54 -6.36,0 -12.71,-0.01 -19.06,0.01 0.01,-27.17 -0.02,-54.35 0.01,-81.52 z"
       id="path13219"
       inkscape:connector-curvature="0"
       style="opacity:1;fill:#77161b" />
    <path
       d="m 1845.43,388.36 c 6.74,-0.02 13.48,0.01 20.23,-0.01 2.41,14.87 4.86,29.74 7.28,44.61 0.68,5.05 1.54,10.09 1.63,15.2 1.44,-5.98 1.5,-12.18 2.6,-18.22 2.35,-13.87 4.56,-27.76 7,-41.62 6.71,0.17 13.44,-0.19 20.16,0.21 -6.33,27.05 -12.33,54.19 -18.47,81.29 -7.42,0.08 -14.83,-0.03 -22.24,0.07 -6.15,-27.16 -12.09,-54.36 -18.19,-81.53 z"
       id="path13221"
       inkscape:connector-curvature="0"
       style="opacity:1;fill:#77161b" />
    <path
       d="m 1911.45,388.38 c 14.75,-0.05 29.5,-0.01 44.25,-0.02 -0.04,5.36 0.09,10.74 -0.09,16.11 -8.39,-0.15 -16.78,-0.03 -25.16,-0.07 -0.02,4.87 0.04,9.75 -0.06,14.63 7.77,0.35 15.57,0.06 23.36,0.16 -0.03,5.48 -0.02,10.96 -0.02,16.45 -7.75,-0.02 -15.5,0.02 -23.25,-0.02 -0.06,5.93 -0.05,11.86 0,17.8 8.4,-0.04 16.81,0 25.22,-0.02 0,5.48 -0.01,10.96 0.01,16.44 -14.76,-0.01 -29.52,0.06 -44.28,-0.04 0.08,-27.14 0.04,-54.28 0.02,-81.42 z"
       id="path13223"
       inkscape:connector-curvature="0"
       style="opacity:1;fill:#77161b" />
    <path
       d="m 1967.41,388.36 c 11.53,0.25 23.11,-0.59 34.6,0.58 6.86,0.48 13.23,5.08 15.31,11.72 3.14,9.95 1.44,22.96 -8.27,28.68 5.81,3.4 8.53,10.1 8.71,16.61 0.68,8.02 -0.75,17.13 4.51,23.94 -7.39,-0.11 -14.78,0.01 -22.16,-0.07 -2.76,-9.08 0.28,-18.67 -2.09,-27.75 -1.43,-5.06 -7.49,-4.71 -11.66,-4.82 -0.19,10.86 -0.03,21.73 -0.08,32.6 -6.31,-0.02 -12.61,0.04 -18.9,-0.04 0.08,-27.15 0.02,-54.3 0.03,-81.45 m 18.87,13.95 c 0.06,6.79 -0.16,13.58 0.13,20.37 3.96,-0.23 9.13,0.11 11.48,-3.82 1.87,-3.9 2,-8.81 0.21,-12.76 -2.38,-4.11 -7.74,-3.76 -11.82,-3.79 z"
       id="path13225"
       inkscape:connector-curvature="0"
       style="opacity:1;fill:#77161b" />
    <path
       d="m 2087.51,388.4 c 6.36,-0.09 12.73,-0.02 19.1,-0.04 0,27.16 -0.02,54.32 0.01,81.48 -6.36,0.03 -12.72,-0.01 -19.06,0.03 -0.07,-27.16 0.03,-54.32 -0.05,-81.47 z"
       id="path13227"
       inkscape:connector-curvature="0"
       style="opacity:1;fill:#77161b" />
    <path
       d="m 2114.41,388.39 c 16.59,-0.16 33.2,0.17 49.79,-0.17 0.31,5.39 0.21,10.78 0.22,16.17 -5.27,0.05 -10.53,-0.08 -15.78,0.09 0.13,21.79 0,43.57 0.06,65.36 -6.36,0.03 -12.72,-0.02 -19.07,0.03 -0.08,-21.82 -0.02,-43.65 -0.03,-65.47 -5.07,0 -10.12,0 -15.17,0 -0.01,-5.34 0.02,-10.67 -0.02,-16.01 z"
       id="path13229"
       inkscape:connector-curvature="0"
       style="opacity:1;fill:#77161b" />
    <path
       d="m 2168.64,398.59 c -1.15,-3.62 -3.49,-6.92 -3.66,-10.78 6.64,1.24 13.49,0.14 20.23,0.64 2.4,8.31 4.91,16.6 7.57,24.84 3.14,-8.12 5.22,-16.62 7.89,-24.9 6.84,-0.06 13.69,-0.02 20.55,-0.03 -5.65,16.01 -12.77,31.51 -18.39,47.52 -0.2,11.31 -0.03,22.64 -0.07,33.96 -6.5,0.01 -13,0.02 -19.49,0 0.03,-9.6 -0.02,-19.19 0.03,-28.79 -0.06,-2.48 0.26,-5.08 -0.75,-7.42 -4.64,-11.68 -9.28,-23.36 -13.91,-35.04 z"
       id="path13231"
       inkscape:connector-curvature="0"
       style="opacity:1;fill:#77161b" />
    <path
       d="m 1441.5,447.36 c -0.03,-5.53 -0.17,-11.07 0.08,-16.6 11,0.22 22,-0.14 33,0.19 -0.11,5.47 -0.01,10.94 -0.08,16.41 -11,-0.03 -22,-0.04 -33,0 z"
       id="path13233"
       inkscape:connector-curvature="0"
       style="opacity:1;fill:#77161b" />
  </g>
</svg>
